<mxfile host="app.diagrams.net" modified="2023-10-06T04:36:26.611Z" agent="Mozilla/5.0 (Windows NT 10.0; Win64; x64) AppleWebKit/537.36 (KHTML, like Gecko) Chrome/117.0.0.0 Safari/537.36" etag="d-1tzZQNOhrRvbQcEtRs" version="22.0.3" type="github">
  <diagram name="Trang-1" id="GgKC1_RRbMMt9X9RvhVU">
    <mxGraphModel dx="1050" dy="542" grid="1" gridSize="10" guides="1" tooltips="1" connect="1" arrows="1" fold="1" page="1" pageScale="1" pageWidth="827" pageHeight="1169" math="0" shadow="0">
      <root>
        <mxCell id="0" />
        <mxCell id="1" parent="0" />
        <mxCell id="G7AkkxvC6R_xDLnnkFi--11" value="" style="rounded=1;whiteSpace=wrap;html=1;" parent="1" vertex="1">
          <mxGeometry x="40" y="260" width="350" height="72" as="geometry" />
        </mxCell>
        <UserObject label="https://stackjava.com/wp-content/uploads/2020/05/minio-logo.jpg" link="https://stackjava.com/wp-content/uploads/2020/05/minio-logo.jpg" id="mRAGLZKaXaNuD00MnWvR-1">
          <mxCell style="whiteSpace=wrap;html=1;aspect=fixed;" parent="1" vertex="1">
            <mxGeometry x="10" y="80" width="970" height="970" as="geometry" />
          </mxCell>
        </UserObject>
        <mxCell id="mRAGLZKaXaNuD00MnWvR-4" value="" style="shape=image;verticalLabelPosition=bottom;labelBackgroundColor=default;verticalAlign=top;aspect=fixed;imageAspect=0;image=https://cdn.invicti.com/statics/img/techdoc/company-logos/splunk-logo.png;" parent="1" vertex="1">
          <mxGeometry x="710" y="510" width="108" height="60.59" as="geometry" />
        </mxCell>
        <mxCell id="mRAGLZKaXaNuD00MnWvR-6" value="" style="rounded=1;whiteSpace=wrap;html=1;" parent="1" vertex="1">
          <mxGeometry x="30" y="210" width="640" height="550" as="geometry" />
        </mxCell>
        <mxCell id="mRAGLZKaXaNuD00MnWvR-8" value="" style="image;aspect=fixed;perimeter=ellipsePerimeter;html=1;align=center;shadow=0;dashed=0;spacingTop=3;image=img/lib/active_directory/generic_node.svg;" parent="1" vertex="1">
          <mxGeometry x="150" y="271.5" width="50" height="49" as="geometry" />
        </mxCell>
        <mxCell id="mRAGLZKaXaNuD00MnWvR-9" value="" style="image;aspect=fixed;perimeter=ellipsePerimeter;html=1;align=center;shadow=0;dashed=0;spacingTop=3;image=img/lib/active_directory/generic_node.svg;" parent="1" vertex="1">
          <mxGeometry x="245" y="270" width="50" height="49" as="geometry" />
        </mxCell>
        <mxCell id="mRAGLZKaXaNuD00MnWvR-10" value="" style="image;aspect=fixed;perimeter=ellipsePerimeter;html=1;align=center;shadow=0;dashed=0;spacingTop=3;image=img/lib/active_directory/generic_node.svg;" parent="1" vertex="1">
          <mxGeometry x="340" y="265.5" width="50" height="49" as="geometry" />
        </mxCell>
        <mxCell id="mRAGLZKaXaNuD00MnWvR-12" value="Master node" style="text;html=1;strokeColor=none;fillColor=none;align=center;verticalAlign=middle;whiteSpace=wrap;rounded=0;" parent="1" vertex="1">
          <mxGeometry x="140" y="235.50000000000003" width="60" height="30" as="geometry" />
        </mxCell>
        <mxCell id="mRAGLZKaXaNuD00MnWvR-13" value="Worker node" style="text;html=1;strokeColor=none;fillColor=none;align=center;verticalAlign=middle;whiteSpace=wrap;rounded=0;" parent="1" vertex="1">
          <mxGeometry x="240" y="235.5" width="60" height="30" as="geometry" />
        </mxCell>
        <mxCell id="mRAGLZKaXaNuD00MnWvR-14" value="Infra node" style="text;html=1;strokeColor=none;fillColor=none;align=center;verticalAlign=middle;whiteSpace=wrap;rounded=0;" parent="1" vertex="1">
          <mxGeometry x="335" y="235.5" width="60" height="30" as="geometry" />
        </mxCell>
        <mxCell id="mRAGLZKaXaNuD00MnWvR-16" value="" style="outlineConnect=0;dashed=0;verticalLabelPosition=bottom;verticalAlign=top;align=center;html=1;shape=mxgraph.aws3.ec2_compute_container_3;fillColor=#F58534;gradientColor=none;" parent="1" vertex="1">
          <mxGeometry x="240" y="333.84000000000003" width="60" height="34.5" as="geometry" />
        </mxCell>
        <mxCell id="mRAGLZKaXaNuD00MnWvR-17" value="" style="outlineConnect=0;dashed=0;verticalLabelPosition=bottom;verticalAlign=top;align=center;html=1;shape=mxgraph.aws3.ec2_compute_container_3;fillColor=#F58534;gradientColor=none;" parent="1" vertex="1">
          <mxGeometry x="335" y="333.84" width="60" height="34.5" as="geometry" />
        </mxCell>
        <mxCell id="mRAGLZKaXaNuD00MnWvR-18" value="" style="outlineConnect=0;dashed=0;verticalLabelPosition=bottom;verticalAlign=top;align=center;html=1;shape=mxgraph.aws3.ec2_compute_container_3;fillColor=#F58534;gradientColor=none;" parent="1" vertex="1">
          <mxGeometry x="145" y="343" width="60" height="34.5" as="geometry" />
        </mxCell>
        <mxCell id="mRAGLZKaXaNuD00MnWvR-19" value="Running Containers" style="text;html=1;strokeColor=none;fillColor=none;align=center;verticalAlign=middle;whiteSpace=wrap;rounded=0;" parent="1" vertex="1">
          <mxGeometry x="490" y="336.09" width="110" height="30" as="geometry" />
        </mxCell>
        <mxCell id="CIJrz4SuWThyDQhw6ly3-8" style="edgeStyle=orthogonalEdgeStyle;rounded=0;orthogonalLoop=1;jettySize=auto;html=1;entryX=0;entryY=0.5;entryDx=0;entryDy=0;" parent="1" source="mRAGLZKaXaNuD00MnWvR-22" target="mRAGLZKaXaNuD00MnWvR-28" edge="1">
          <mxGeometry relative="1" as="geometry" />
        </mxCell>
        <mxCell id="mRAGLZKaXaNuD00MnWvR-22" value="Cluster Log Forwarder" style="rounded=0;whiteSpace=wrap;html=1;" parent="1" vertex="1">
          <mxGeometry x="40" y="510" width="120" height="60" as="geometry" />
        </mxCell>
        <mxCell id="mRAGLZKaXaNuD00MnWvR-24" value="Log" style="html=1;whiteSpace=wrap;strokeColor=none;fillColor=#0079D6;labelPosition=center;verticalLabelPosition=middle;verticalAlign=top;align=center;fontSize=12;outlineConnect=0;spacingTop=-6;fontColor=#FFFFFF;sketch=0;shape=mxgraph.sitemap.log;" parent="1" vertex="1">
          <mxGeometry x="150" y="395" width="50" height="40" as="geometry" />
        </mxCell>
        <mxCell id="mRAGLZKaXaNuD00MnWvR-25" value="Log" style="html=1;whiteSpace=wrap;strokeColor=none;fillColor=#0079D6;labelPosition=center;verticalLabelPosition=middle;verticalAlign=top;align=center;fontSize=12;outlineConnect=0;spacingTop=-6;fontColor=#FFFFFF;sketch=0;shape=mxgraph.sitemap.log;" parent="1" vertex="1">
          <mxGeometry x="245" y="390" width="50" height="40" as="geometry" />
        </mxCell>
        <mxCell id="mRAGLZKaXaNuD00MnWvR-26" value="Log" style="html=1;whiteSpace=wrap;strokeColor=none;fillColor=#0079D6;labelPosition=center;verticalLabelPosition=middle;verticalAlign=top;align=center;fontSize=12;outlineConnect=0;spacingTop=-6;fontColor=#FFFFFF;sketch=0;shape=mxgraph.sitemap.log;" parent="1" vertex="1">
          <mxGeometry x="340" y="390" width="50" height="40" as="geometry" />
        </mxCell>
        <mxCell id="mRAGLZKaXaNuD00MnWvR-27" value="Application Logs" style="text;html=1;strokeColor=none;fillColor=none;align=center;verticalAlign=middle;whiteSpace=wrap;rounded=0;" parent="1" vertex="1">
          <mxGeometry x="492.5" y="395" width="110" height="30" as="geometry" />
        </mxCell>
        <mxCell id="mRAGLZKaXaNuD00MnWvR-29" value="" style="endArrow=classic;html=1;rounded=0;exitX=0.5;exitY=1;exitDx=0;exitDy=0;exitPerimeter=0;entryX=0.5;entryY=0;entryDx=0;entryDy=0;entryPerimeter=0;" parent="1" source="mRAGLZKaXaNuD00MnWvR-17" target="mRAGLZKaXaNuD00MnWvR-26" edge="1">
          <mxGeometry width="50" height="50" relative="1" as="geometry">
            <mxPoint x="390" y="440" as="sourcePoint" />
            <mxPoint x="440" y="390" as="targetPoint" />
          </mxGeometry>
        </mxCell>
        <mxCell id="mRAGLZKaXaNuD00MnWvR-34" value="" style="endArrow=classic;html=1;rounded=0;exitX=0.5;exitY=1;exitDx=0;exitDy=0;exitPerimeter=0;entryX=0.5;entryY=0;entryDx=0;entryDy=0;entryPerimeter=0;" parent="1" source="mRAGLZKaXaNuD00MnWvR-16" target="mRAGLZKaXaNuD00MnWvR-25" edge="1">
          <mxGeometry width="50" height="50" relative="1" as="geometry">
            <mxPoint x="390" y="440" as="sourcePoint" />
            <mxPoint x="440" y="390" as="targetPoint" />
          </mxGeometry>
        </mxCell>
        <mxCell id="mRAGLZKaXaNuD00MnWvR-35" value="" style="endArrow=classic;html=1;rounded=0;exitX=0.5;exitY=1;exitDx=0;exitDy=0;exitPerimeter=0;entryX=0.5;entryY=0;entryDx=0;entryDy=0;entryPerimeter=0;" parent="1" source="mRAGLZKaXaNuD00MnWvR-18" target="mRAGLZKaXaNuD00MnWvR-24" edge="1">
          <mxGeometry width="50" height="50" relative="1" as="geometry">
            <mxPoint x="390" y="440" as="sourcePoint" />
            <mxPoint x="440" y="390" as="targetPoint" />
          </mxGeometry>
        </mxCell>
        <mxCell id="mRAGLZKaXaNuD00MnWvR-38" value="" style="endArrow=none;html=1;rounded=0;exitX=0.5;exitY=1;exitDx=0;exitDy=0;entryX=0.5;entryY=0;entryDx=0;entryDy=0;entryPerimeter=0;" parent="1" source="mRAGLZKaXaNuD00MnWvR-8" target="mRAGLZKaXaNuD00MnWvR-18" edge="1">
          <mxGeometry width="50" height="50" relative="1" as="geometry">
            <mxPoint x="80" y="340" as="sourcePoint" />
            <mxPoint x="130" y="290" as="targetPoint" />
          </mxGeometry>
        </mxCell>
        <mxCell id="mRAGLZKaXaNuD00MnWvR-39" value="" style="endArrow=none;html=1;rounded=0;exitX=0.5;exitY=1;exitDx=0;exitDy=0;entryX=0.5;entryY=0;entryDx=0;entryDy=0;entryPerimeter=0;" parent="1" source="mRAGLZKaXaNuD00MnWvR-9" target="mRAGLZKaXaNuD00MnWvR-16" edge="1">
          <mxGeometry width="50" height="50" relative="1" as="geometry">
            <mxPoint x="390" y="440" as="sourcePoint" />
            <mxPoint x="440" y="390" as="targetPoint" />
          </mxGeometry>
        </mxCell>
        <mxCell id="mRAGLZKaXaNuD00MnWvR-41" value="" style="endArrow=none;html=1;rounded=0;exitX=0.5;exitY=1;exitDx=0;exitDy=0;entryX=0.5;entryY=0;entryDx=0;entryDy=0;entryPerimeter=0;" parent="1" source="mRAGLZKaXaNuD00MnWvR-10" target="mRAGLZKaXaNuD00MnWvR-17" edge="1">
          <mxGeometry width="50" height="50" relative="1" as="geometry">
            <mxPoint x="390" y="440" as="sourcePoint" />
            <mxPoint x="440" y="390" as="targetPoint" />
          </mxGeometry>
        </mxCell>
        <mxCell id="mRAGLZKaXaNuD00MnWvR-43" value="" style="endArrow=classic;html=1;rounded=0;exitX=0.5;exitY=1;exitDx=0;exitDy=0;exitPerimeter=0;entryX=0.5;entryY=0;entryDx=0;entryDy=0;" parent="1" source="mRAGLZKaXaNuD00MnWvR-24" target="mRAGLZKaXaNuD00MnWvR-28" edge="1">
          <mxGeometry width="50" height="50" relative="1" as="geometry">
            <mxPoint x="390" y="440" as="sourcePoint" />
            <mxPoint x="440" y="390" as="targetPoint" />
          </mxGeometry>
        </mxCell>
        <mxCell id="mRAGLZKaXaNuD00MnWvR-45" value="" style="endArrow=classic;html=1;rounded=0;exitX=0.5;exitY=1;exitDx=0;exitDy=0;exitPerimeter=0;entryX=0.5;entryY=0;entryDx=0;entryDy=0;" parent="1" source="mRAGLZKaXaNuD00MnWvR-26" target="mRAGLZKaXaNuD00MnWvR-28" edge="1">
          <mxGeometry width="50" height="50" relative="1" as="geometry">
            <mxPoint x="390" y="440" as="sourcePoint" />
            <mxPoint x="200" y="560" as="targetPoint" />
          </mxGeometry>
        </mxCell>
        <mxCell id="G7AkkxvC6R_xDLnnkFi--1" value="" style="endArrow=classic;html=1;rounded=0;exitX=0.5;exitY=1;exitDx=0;exitDy=0;exitPerimeter=0;entryX=0.5;entryY=0;entryDx=0;entryDy=0;" parent="1" source="mRAGLZKaXaNuD00MnWvR-25" target="mRAGLZKaXaNuD00MnWvR-28" edge="1">
          <mxGeometry width="50" height="50" relative="1" as="geometry">
            <mxPoint x="205" y="430" as="sourcePoint" />
            <mxPoint x="205" y="560" as="targetPoint" />
          </mxGeometry>
        </mxCell>
        <mxCell id="CIJrz4SuWThyDQhw6ly3-6" style="edgeStyle=orthogonalEdgeStyle;rounded=0;orthogonalLoop=1;jettySize=auto;html=1;" parent="1" source="mRAGLZKaXaNuD00MnWvR-28" target="G7AkkxvC6R_xDLnnkFi--4" edge="1">
          <mxGeometry relative="1" as="geometry" />
        </mxCell>
        <mxCell id="CIJrz4SuWThyDQhw6ly3-9" style="edgeStyle=orthogonalEdgeStyle;rounded=0;orthogonalLoop=1;jettySize=auto;html=1;" parent="1" source="mRAGLZKaXaNuD00MnWvR-28" target="mRAGLZKaXaNuD00MnWvR-4" edge="1">
          <mxGeometry relative="1" as="geometry" />
        </mxCell>
        <mxCell id="mRAGLZKaXaNuD00MnWvR-28" value="Vector Collector" style="rounded=0;whiteSpace=wrap;html=1;" parent="1" vertex="1">
          <mxGeometry x="210" y="510" width="120" height="60" as="geometry" />
        </mxCell>
        <mxCell id="-6M73GUkKirIyUd6SmXf-2" style="edgeStyle=orthogonalEdgeStyle;rounded=0;orthogonalLoop=1;jettySize=auto;html=1;" edge="1" parent="1" source="G7AkkxvC6R_xDLnnkFi--4" target="-6M73GUkKirIyUd6SmXf-1">
          <mxGeometry relative="1" as="geometry" />
        </mxCell>
        <mxCell id="G7AkkxvC6R_xDLnnkFi--4" value="Loki Stack" style="rounded=0;whiteSpace=wrap;html=1;" parent="1" vertex="1">
          <mxGeometry x="380" y="650" width="120" height="60" as="geometry" />
        </mxCell>
        <mxCell id="G7AkkxvC6R_xDLnnkFi--7" value="" style="shape=singleArrow;whiteSpace=wrap;html=1;" parent="1" vertex="1">
          <mxGeometry x="414" y="400" width="30" height="20" as="geometry" />
        </mxCell>
        <mxCell id="G7AkkxvC6R_xDLnnkFi--8" value="" style="shape=singleArrow;whiteSpace=wrap;html=1;" parent="1" vertex="1">
          <mxGeometry x="414" y="343" width="30" height="20" as="geometry" />
        </mxCell>
        <mxCell id="G7AkkxvC6R_xDLnnkFi--9" value="" style="shape=singleArrow;whiteSpace=wrap;html=1;" parent="1" vertex="1">
          <mxGeometry x="414" y="280" width="30" height="20" as="geometry" />
        </mxCell>
        <mxCell id="G7AkkxvC6R_xDLnnkFi--10" value="Infrastructure Log" style="text;html=1;strokeColor=none;fillColor=none;align=center;verticalAlign=middle;whiteSpace=wrap;rounded=0;" parent="1" vertex="1">
          <mxGeometry x="490" y="275" width="115" height="30" as="geometry" />
        </mxCell>
        <mxCell id="G7AkkxvC6R_xDLnnkFi--12" value="Audit Log" style="text;html=1;strokeColor=none;fillColor=none;align=center;verticalAlign=middle;whiteSpace=wrap;rounded=0;" parent="1" vertex="1">
          <mxGeometry x="500" y="510" width="60" height="30" as="geometry" />
        </mxCell>
        <mxCell id="G7AkkxvC6R_xDLnnkFi--14" value="Application Log, Infrastructure Log" style="text;html=1;strokeColor=none;fillColor=none;align=center;verticalAlign=middle;whiteSpace=wrap;rounded=0;" parent="1" vertex="1">
          <mxGeometry x="440" y="584.5" width="110" height="30" as="geometry" />
        </mxCell>
        <mxCell id="CIJrz4SuWThyDQhw6ly3-7" style="edgeStyle=orthogonalEdgeStyle;rounded=0;orthogonalLoop=1;jettySize=auto;html=1;" parent="1" source="CIJrz4SuWThyDQhw6ly3-2" edge="1">
          <mxGeometry relative="1" as="geometry">
            <mxPoint x="270" y="570" as="targetPoint" />
          </mxGeometry>
        </mxCell>
        <mxCell id="CIJrz4SuWThyDQhw6ly3-2" value="ClusterLogging" style="rounded=0;whiteSpace=wrap;html=1;" parent="1" vertex="1">
          <mxGeometry x="210" y="650" width="120" height="60" as="geometry" />
        </mxCell>
        <mxCell id="CIJrz4SuWThyDQhw6ly3-10" value="" style="image;sketch=0;aspect=fixed;html=1;points=[];align=center;fontSize=12;image=img/lib/mscae/OpenShift.svg;" parent="1" vertex="1">
          <mxGeometry x="75" y="700" width="50" height="46" as="geometry" />
        </mxCell>
        <mxCell id="-6M73GUkKirIyUd6SmXf-1" value="" style="shape=image;verticalLabelPosition=bottom;labelBackgroundColor=default;verticalAlign=top;aspect=fixed;imageAspect=0;image=data:image/png,iVBORw0KGgoAAAANSUhEUgAAAbIAAAGECAYAAABTUKWsAAAAAXNSR0IArs4c6QAAAARnQU1BAACxjwv8YQUAAAAJcEhZcwAADsMAAA7DAcdvqGQAALOISURBVHhe7b0HoCRHde99Jt+c4+agXa2QVjmjLKGAMkIgogUGg22ME7a/z88Y2+/52TynZxv7M8YGI2REEpKQBAKUc85xtTndnOPk7/zPqZqZu3F2793dO/ee30x3V1fqqurq+nd1V3cHsgwZhmEYxixneHTMmaYSdEvDMAzDKElMyAzDMIySxoTMMAzDKGlMyAzDMIySxoTMMAzDKGlMyAzDMIySxoTMMAzDKGlMyAzDMIySxoTMMAzDKGlMyAzDMIySxoTMMAzDKGlMyAzDMIySxoTMMAzDKGlMyIy5j3zfAbOMLgq+95AtWCmwFrzX/PchODwj6wVT4QckMs4PyHvBD9vOyLphGDOLCZkx9wlATHjG1T0LM4yOgNgzrDAw7SY0LFKBgJekIMuRxpSD3QKIk40QtCAOKV1hfxmesORflu0DwalhDcOYEex7ZMacB/2hANQrpyJa5UViUP1ZiTLJJE1s2UkT67dSfOsOSvb0UXpkjNKJpPoNBihSUUbRhnqKLmihshWLqXz5Ioo01IlAyVGE+BGdhGCjCKBfz23cMIyDZG/fIzMhM+Y8OSGDmRfoJWGeGp+g+MbtNL5+E8U376TRTdso1dVHqcEhSo2NUyaeIEqjD8b+g9zXCocoVFFO4ZpqCjfWUtmidipftojKl7KoHb1MBA5Av3yvz8uXXl4EAbsMYhgHiQmZMW/xFVw6SKws6eFRmti8g0Zef4dGX3iDJrZup2QnCxjbU0aFKxdG5np5MMPqJJcK2RLuwfKY9NBiC1qpfPUyqj7tOKpctZJi7U0UiIRzaqaLfIxqaxjGgWJCZsxjVMEyyRQlOrpphMVr8KkXaZSFLLGti111EEZQvEGqVMggOH6ZM/MMwqT2bs5hQrEY98qWUM3aY6nunFOo8piVFK6tJgqFZPiH9MLgHZiSGcZBYUJmzGOylJqI0/i7m2nw4adp8IEnaWzjVnEJyiAMlTL0lVRjVMxyisPGoAhcmjK+O8YLiJr3L+HFLUC1px1PDZe9l2pOXUuxhW0ULItJGAnmojQM48AxITPmJ1y9M+OTNPTKG9R561009uLrlMbBEMDowiCLC1d/7oplsGCVwb00f2ERwgSxymTT0gvTS5MIh6V40QWvYzBIiLteafaEGILV1dR8xfnUdNVFVL56BQUrWczEvymZYRwsJmTG/AMilEhQ/yPP0M5/vpUmtu+gbDotAiY40RER458cCc5Of054xAAlg6ixSPE65AiiBf8yqJ7jhJ1GwXHCezhMddwra73pSqo7/wwiXocfwzAODhMyY26C54xZWSA+Ki8QFVWa9Hichp58gbb89b9RvG+Asqn0bkLiK78PjT4aDHgCTG14nZVO+m6BEOZsl3ORCbIIwYMZ9sALYSgUpOpjV1PLx6+jBu6haTiOHb1B59mHkQBYBLB1J7aGYeTYm5DZ0WKUNjJCQyUkK5cFIQQBSk8kaPSVN2nrP9wiIpZBTwy4m1Q+lMc/qiySyPFIr0s8sQsLGO6NeRGTg8a5h3LhEBICCJGCPz20MqkMjb69iTpuvYv6fvpwPgbp+WkacH9NxkpqVGxvh6VhHAh2xBgljRcQqACWIj6JJI2v20g7b7mTJnds154Y2+tgDDaomkyF7cWPX3VLlRkVQRws8CNusjGY+ec858RM7NH70wjTiQRNcHo6b7uHhh59jiiZEt8AcUJEMSGszHyEhmEUhQmZUeKIvGhvxk3xnV008MBTNPri66wq7iJhoYix0XnNT5gxGCoPLyolEDe3xu4S1HtkxIVXYQUZKgwLX+pTbTIYNfnWeur49o/lAexsAmLm8IFkwYaCbRiGsX9MyIw5ABp+6RtRamiEhl94nQYeforS4+MsRK6KF4iY4gyiQv6SpFoBMYp/7TPBMe+HZYtXcn6w4PixLpO4+TWE0cEfqXichl9+jbq+/1PuKXZRJqVihjj9tt3CMIwDwITMKGmk4c9digvQxKbtNPjUSzSxeTuLgxMfP+VUAgbp+yi58OoyRUzYyQuTv4+mlgVi5vBhpUMFAZUNOh+8QBzZZIr67nucBh59llIDQ+yQ37ZhGAeHCZkxJxCRmEzQ+JvraeyNdSoPIiS44LcrKmIiMWxQKdEBHm5FcR7w9ntcOAyi18WTeuOfKJYCow8+1Z1Txt2xoBv5iK5ZamyUeu95iEZfeZvSo+POt4ZzGzUM4wAwITNKnLygTG7fqa+d2tnNa77HpPIwBfav97oweflw/iQqdg+H5QXBodoqCtXXElVVUiYWETfpmSG8/HnGQfNyKXLFiwynS23hB3YiV0ENP/HWBur+yQM09vZGolRaDkS9HyceDcM4AEzIjJIGfSXRHmb0rXdpfMMWHeCB3pM45Ks4VuEbAofLifpTcB9LnkfjQKGyMipfuIDqzjiRmq++iFqvvZQaLzmHqo5docIW0kH3uC+Gn27HCxZ6bXD0wgRBwwpcNS0YBwnj8OMv0OBTL1O8d1DsPflLoIZhFAMfa/400DBKENReVRXa8e/fpe7v/5SSPQP61g22kzd2iBcVGciIOEmPSntKuOyHQR0Z7kGVL2ijlhuuoIZL30vR1ibxA0SyuOc0/vq71IVh9M+9QonhEdm0CBf7g0BB4nQ7QMOKDacFywz3yKBUSBVcY8sW0YLPfJiar71E/PowgsSLbMAvG5yTszaMeYc9EG3MSdB7QcOe6Oyl8U07KT44IiMEg+yA3pVv9HG6JmLkwgjcc6Msekzsj0Wseu0aWvz7N1PzBy6m2MJWedlvMBaVKYSpsoKqTjiGFv/OzdR+83VUedRiiUZ6XNk0b9NfSlTRco85a/wsYCJHnDgRJU4EfGP04tCTL9L4G+/mEoY06gxLNkj6/KoKoHc2DMOEzJgjTGzZIR/FxMPGcpHBt/a4TwWBYbHxDx2LCIiXAIVYJCB40dZGWvAr11Ht6adQpL6BAiF8T4z/4hlghQ+YsijFFrdT01WXUMt1l7GYLZV4svhKNMSKN5CG8PAPcx+JvJIKhxu7i8BhiYnTO/zca9T30DOUGZ+QLUkaMZNJ1nhSRJydmBmGoZiQGSUPOkSJbR2UHMK9Jn0AWu5DiWpoL0zFIC8I4qTOFODeVvP7L6Sqk46jUE0V1CLnRyZRMzbINUQWkVCQom3N1PC+c6n5ukupfMViduUfO4vIcMQ6pAMXNmEGImM8hwhB8DROuCX7B2j4+Vdp+NlXdVMOb4QvjUPRgSqGYXhMyIySxotEorefUqPj0viLAOQEAaIBX+jJ6LoICZtklXtesbYWarziAgrX1fgIGbko6Mzw78WE52wNMYktaKGGS95Lzde/j8qWL2Q3yBaEDOF0mx7ZIouX6JeHzYg3m87QxIYt1Hf/4xTvwIc+XWjntzAIkPVdLQ1jHmNCZpQ0IjcsKqmxCXnHom/g8UyYGF3vReY8U3EQmYCBgrEIVaxYSGXLFlEwEsn5E78wFyLX+xgsRKyyFFvYQk0sgs3XsZgtWcARIqBKoPT4xFd+rm8KES8cTX4LqcFhGn7pdRp69FleSanfAnZf39XGMOYvJmRGicNygMt5qTSuJ0pPKS8P3NiLYPDCWfrmP+cvHKJQc53qHcSpUB8KzOLsJiEXX4Airc3Uct3l1HLt+6R3FwyH2R1DOaZGpj8XMLf0sBj39FPvfY/S5KbtlJFBKN5lqm99tGDX8IYxfzEhM0oaac6lUQ+4t847fDvvLSBS6Cnlrtfx0k8urMTjnREBxE7cdYKzXpTEKvyqGCLKSH01tX30Wmq5+n0UaW6mQCgk3uBDvzoNs05OcdlOfwKvpycTNLZuM3X96D4ivPGDty2umPHkfDLYtjMahmFCZpQ4rqXPhlgw3GU9WecFXi2FkYQqN2zLds6VvWVEmPDRzOwwi4ZXwSBc4S4eVa/EwUuYW2qUGkaEif9VZdT+uQ9R3SVnUbiBe3nOr4gizLwIZtxwf04MtiHRICyvY2gIjcZp4BeP0uhbm4jicQ2vwQXZHHDrhmGYkBmlDhp0FqFQRZlc0lNxgDLoA8r+XhkmlTRxlTUITDqZoMm311NmcJg9IYRzhwgiGp75N3JouPxSDDLBXcMFIlFa8vmPUNMF7+VeGsSM4wymRScRT+ED0Xr5kRfuBcNZbD+boklOS8e//zcl+odky4gX6QcwA79uGIYJmTEX4FocbmmgUFUFGyEKsGQRC4R4of0hjCeEDIgQOBUQgUimabSnj7p+9hClhsdECOGioWBkC2csCvSsqiuo9ebrqeHSc7Rnhq9Ms5JBtyQqEVmY/OB8FU1MIr6pDA29so4Gn3yekixmSC98YUL8MIjZMAzBhMwoeXDpr3zJIukBQQgy0pviBh9/tPho/AW3ZDsx8QxvtM+Ox6n3zvtpcuMWyiQS4iZSBjcx+fD7B8IUYAGNLmimphsuo4aLWcxqqtmODzVJC96iH6CwJEzj1vh1KcLGq5nJBHV976fyEc5MKomoFVyW5IWGMQwDmJAZJY1/ALli2UKKtjcTxaLS2OsnWbSxL2zyYZbxhAViFshkKb51J3V8924aX7eRe2kJdmAPHA/AvDCOfaJBZLBH+col1Hz1xdR44dkUqojxdllm2V3FFr40Vt/p06Cwg5ylaWLDVhp89DlK7Ohiay93fuY2ZBgGhf6McWbDKDlkGDr/8T7EcW74JzZupcwovgytciCC5dr8XZt+p1PqkMlQoqObsuk0RZvqKVJXR4GwvuVeItB/EXgh4l8oSJGGGu6RVVFqZITi2zuIOH7xlYuP/U1JCM9lwcLFApscHqGythaKLWqXPMJJJh/EMOYRcTwrugdMyIw5AUQj2TsgvZh4V68TCm3txcz6gssPXjQwF5OuMiwcGPjR0Sv3s0TM6mt0GL3zk/NaFLp1iCHeGAJhTPYNUnxnt1yyxPY0LT5WXSJU4WXD1OAIBaMxKlvcLm/j93nyC8OYT5iQGXMa3/RPbu3gntk27s244fWuwZ9yDZ3t8jqgJj/PTCQo2dnLEWYo0t7IAlTLgTV0Psy+YF+cGB2liBABCkaiFGlkYWxpoPimHTqAA2/eF5ByePaxa04QVkMHuDc3zumoltdg4WOfzoNhzDtMyIy5ibT72vijsU8NDNH4u5spPTIqPZ7cy3ldwy/ywWYdL6hioaHZjrtueMYrMzZOic5uEcPy5UsoXF0p7vlLgPsGcXifYsI/GqFocwNVLGilkdfXU3YszvHjMqNuE/f0MPAEAoi0yX08BOQpPTZGWT6Ao00NVL5iIacDg/d9j84w5g8mZMacRC4bQjgwoeeUTlOiu4cm1m+VQSD4ZArEBGIFv+JfArolxIAn+QwLxEGsWDzGJ1jM+lhAUlRz/Bp5J2OxqHYiJo2PV2QZjIQpurCNIq01LGYbWaBG2VYly4upzw8iCZK/rMnCNjgq30SrPG61fBfNRMyYj5iQGXMSlSjXqLNR7mvx6uS7WyjZP8g9HBYRPGgMbeAf5MppA08uNC/RI8JoQhFE6ROxJk6O0eTODkoOjlDd2ScjlGxDELXKrbglelgsprItTDrPwzYstmVLl3LvsYom12+XlwXrg9F47k2egmNfEDakE+lQkcukUyx84xQKhqnq5GOnRis+2IIX2gNl8cZD1lP8GEbpY0JmzEkwbgLCJfKEhjvE/ZjycrksOPLCm/LyXYhTyIkTQFOf7yvpuhc5scktuD83GadEV7+8+aPqhKNZKfWiJC4HAhEr+JcV2Kn9vgiwcJVzzyxYWSYjJdN9gxJWh+Rzb9A9OS3JYAWWlPM/PRHnWYYqjllB4cZ6dkUuEMjLnXiT/CI+lw3DmDOYkBlzEjTa2nvhH7fcIlplZRSprKD06BhNrN8sjTpGCvoBGPhJWMzYXhp+4N1lHZHpfavs+CRNcM8Mr6IqX7qQ44+JH4lH1cYFRrgiQNholMramnkZkm+pJXsHEYOkE/fAcL9OY8Oc7ViQMUAED0pnMmmqO+vk3Oay7nop3i2p/t26uBrG3MGEzJiTeBHLNdtYhLgXU1VO4fpamtywlRL9A+7ZaPWnPwgAr00RH29WQfDx4h2I6fFxiu/oplAsRrEFzdzrq2An3roLIvF4Hdkv6ilYwYLb3MD6yGLW00/pfu6ZBSGeegEUlxlFo1ShJVwmmZDBHxUrllCktYU9cyohjLmEIAzW1WwYcwkTMmNOIm21NNpsKmy4IxF5ZVWoppIm1m2k1NgkBbhHoxcGPXpfCj0aCe4bf+cBPtU3T6x6eKYr2d1HARagaHMjhap0NKOXUiFn2D8Q4VBVFUUbIWZBef4tNTTiokCc8OFx6eA8pCcmKTMyTrWnHc+9Q32TiXdXPXPpkZlhzB1MyIy5Sb5LpEtGeycBCkXDVLZ0EWXjCUrs7JZeVf75LQ2SEyrp9YitLsXsF5iryiX7BuQyIJ7nikHMKtAzc/6K7QaxN59sGCK1LGbSMwtQgnt9qWEVMz+MH3P9aewZjMzs7KVy7pWVLWylAIu2367vYeqiyPQYRolgQmbMTdBO59rqgvtlbj0QDlPl0SsoPThMce5NpVjMMBBEBmvwH009XkQFYYFZwsChAKeLbhakVA+LWT+LWSWLWXsrhcpj8KWjHncJu1dcfHpfiyhcW02xBa3y+AAe6s6MxzlKFaJ8ivIppDSLc/8IVa1dQ5E6vIFEnBjE6YxCkekxjBLAhMyYJ3DDzeIgPRO04TzhHYWxlQsoMzBKya5+eUYMIuEFIuO+C4Z7UjogBJMLzOgTZhA07uWxqkHY4j29lOofonBVhbw+Cg88w6eG2A9In9uC3wbiD1dVUtnyxdyDjNPE5h2U4Z4kPvwpsLdcmtgKLzpOdPSykDZR2ZIF8myZOmt8YPd7gIZR2piQGXMU9IP8nS+eo/HmX9aJk1xm5H+oskpe8ZQaGKbEjg4RC4SQHpwIH57hgmjwhIW4ckwsBFiFqzxrBmvY8BL3yzBII9RQS+XLlsilweJgf9gMLzR22RLP8IHQGFUedzSle3sovr2HMgmkU/3onL3xdnT4f5qSPYNUccxKirW2yHsdfcTyhhATMWOOYUJmzFFUwnJghSfYqjjwOhSAl+GqahacRfIKqvF3t1A2k2InjA5kIeTui36oGf0yDglFhHIhPNbhzsKgood1caBk3xAltnZQtKmOylcsFjtFe3F5NA6eidn91exMAscd5N5d9aknUGJ7ByU7WMwmU+wgYxg1XbxtSDdiSg8PQ7GonHtlkaYGyY/qF5uciBvGXMGEzJi/oD2HiLAW4FJgrL0F7TyNrdvMXayUuGXQy+GGHyKAtl+kgg14oFqv0eknXaAjetkSvSI4pSk9NEKTmzoo1FxHFQsXULbwfpX7yQYx53C6vg/YT5B7V1XvWSX34ibx3sdJ9Mw0nGyXJ6zjObdE/5Bc3sTHRSGCPnq7rGjMNUzIjHmMqA8vuennHle4Woe846Oc4+9uYrXy98jQM9O+D5DeDVSBLdC7QRQQPBE2Bn0iuX+WTlNqeJTiW3ZSpBVvuW+kUDiim/R+eUXikuX+wbZDlZUUXdhKmYk4Jbt6Zdi9xoZtc1owcYIz8aS8EzLG2y1b0u5ETjdtYmbMJUzIjHmM3AnDQhp4+UZYDYtZfa0MqJjYtI3d9E304pvFwfecIHwKLtWpm5ciWUJZsGAxTOEyY3eP3K/CZ1uCGBaPQBATpy56QZAN+wE+ECRcX51LZ4LFLDM26eLRVEi0rFipoVEK11ZR+fJFFMLb+iG86tEw5gwmZMY8hpt0px++gxKIhGXIO96skebe1OS2DlxHlAES8MpKoBrAM5UuHVLi0cEWgJfihxcsZsnOPokvzPFGG2opGI06b/mwEmB/wAtEM4ivTNdyWmsoyz2zREcPpeNx8SK38DheEVjulWWSSfFbvnIpO6IbWdSWDKNkMCEz5i0iMl7JcnNeRiPS8Efbm2UoO77gnE3pgSK9GQmJsJAxFhWIhg8tiwDGWWAuPSOAy3mT2ztltCF6ZdGGeqJoGKE1iOuZFQO8SahQSNIZ4Z5ZemyC4hx/NpUQN41XI8TlTXzRumrVMu7JsfDJporcmGGUACZkxrzHC4PKk1uPhCja2sxTowhEYoDFLJkSf3q3jE3yGRh3eRKgd8WR+Phk7uww8hEDRCY37yRKpqXHBzELhsPsDYFcHEXhtsMLhMd9PcSX7O6lxI4udtM0aY7YUzrFaU9SqLxMhuTjPh2sDWOuYEJmzGO4ufddJlmo2fWz5PJd2aJ2uR+V2N4jDzpn0/pBTiA9G57kvpkM3vAuCmzENsixZeBH457cukPeVl+2oIVFiHtm3FsqGo7Db9eN2tB7exwP3sA/9voGSg4OiRsGrWCjENPU0BilR8epYs1yinBPc2pKDaO0MSEz5i3SmKNHBTFwTbv2YiBkcNLGPrZskbxdA+9lTPb0UobS4i7PbLGfIPe08oM/NBZMsIE/mOUyJEQFNiyGk9u7KD3CwnLUUgrW12Jj8CW+9wl70ThVoDxBFsNwQx1VnngMjT33Csc9Km/5gHi6AEQJ9MzS1PDeU/gI9+k1jNLHhMyY5+wqHypCYst/vKYK3wArX7yQQlUVlMBbOzp6WJQgXupTBniIECk5E9vj1VX61g8Ag65gaD7e8Rjv66eqNcsoUo17V6w4/Pfbhv6Ib2fI8M+lzM2nEmBxitRWc69rhTw+kMBXptMaWHzzwZ7i3lqkrYHK/BtHXNxYYO7jzW3bMEoAEzLD2Ac5UQoHKNreIp9/weCPZAd6Zng42l1qzF3vQz+Nf6wEfgJw8QNLXIxy3yrVO8Rx9VP12qMoUFkpg0QUxIftIxINkw+5d0TMGmsp0txISe5BJgaG5BEACco9x1QyRcn+Yao79xQKlEU4uTrmEj3FfOya/gILw5jVmJAZxj7QRl4nvB0Dn1WRy4w9/dw765XemgqNExusA10RfcsNyZerec4MsnhoeZLFbIB7Zz1Uc+wqCpWXU9YNkVcQb76nVAx4s3+0qYF7Z7VyKRTvfpSnpJFOvHFkeFS+lo3h+Piqtdxrc0A4ZVvFb84wjjgmZIZRBKJX3MgHWQCiTfV6mbGzR17OC/ucWPFS/fIPVixmuFsmV/Fg4b3pwolZnBJdfZQcm6CK5YvlMzAIIMExud6RjN3w29kPeLN/RNJZSSnuQeI7ZQJ6Z9wrS7B4Vp18LEXr8amXMDtwvPhrol0eDKM0MCEzjH3B4qGDNIDOgxVlFEPPjHtPEzu7KDk0KP52RXyzMPhXXIke8fpuAsEKlZ5MyHNmELCyBc3c66uSUZNT4IB7CL0bsh2OM1Aeo2hLE4ViMXk3I3qQIobsA1+cxkdA8caPcE11TnzdRsRkGKWCCZlh7AO8s9A177k5pCJYXqZfYS6L0sTWDsqO6lem1QekBEgfTuZuVd1ZTXSkJMywdKEmJim+vYN7U9zrgwDVVLKb3nPzgYsRMmwP0SIdeHYMX6wOcjrjXT2UxiMEUDOe0KOsWLmUogua5U0j+ZiR3v1vxzBmCyZkhrEP9MIgGnXXsIsmsRk9rbIyqjhqGVEiTZMd3ZQeUzGDu9Mm1gs2c8dKRiSqTS4qiJL3J1+jZnFBHIkd3XLvKtrGYlZdKb04DVOMjCneJ+7ZoQcZaWkQ8Y1v7aQURjNynOnRMe6tReRZOVwu9T1AlbFit2QYRx4TMsPYB3p/imd67a2wAyXg/lL1CUdTkkUB3whLj07oJ15EClhEnF9EIYLkokJcIhZsJ/fOEAZmtkuNjFKchTEUi8pnWGQAiPgvjvyFUBeCF8HKcipra6ZQRSWNr9tEqfEJwjdG45zmaHsjlS1bJJcafYBit2UYswETMsPYF9KiQ2wgTtpX8agT2wdDVHv8akqKAHVSZnScrdG7gX/3GisWKfTtVLQ4CCuT72nJ/SzIj3uoGvGmhoYpvrOLo45Q5ZqV8jJjFVXxsk8C7nkzbFsW2BZPGEQSW9ZG0YoKGnn5TXnlljwkzb3I2IIWKluygP3Dr0RiGCWDCZlhFAGEQX/axufbeZgylGHBqTp6JWUnEjS5jcVsbAyyxRqCoR4hnlhcWCAgWuhdYfKxQtlE7GDmpbfFpb94Z4/oUQX3+sQZMyc0WAgQQieQIqy8NQWxSCCdmFCUe3lHLaNgdRVNvLmO0twzi3f3UxiXSZcvoXBdtfrNILEukGHMckzIDGO6qCpRMBqm8mUL2RSgia075fIdri1mWGhEHeBNJpGsHCJwbAEpgwf0zCRK1qTM6IR8bwxD5mtOOEbFi918GFEv9KKcvZvtHfaLr0yXL1skL0bGZ2rSQ2OUjSco3FBDlceuUm+yETEaxqzHhMwwpou0+SwoQe57VVRQrLVRXuQ7ubVDLzOymwqD+FIRwpJnIl6iSPCBi48Yqg9fgP1n0pQaG5WeWYh/FUev4KOTe1xumwgpKz6aYoCYYZDHwna5rBjHW/M7uiVdZe2tFG1rLj4uw5gFmJAZxjTJixEWAXlYGm+1DwZD3DPbQelxiBnLDrvlhEf8q3hhqZ0274r4RJsEvJcxPTymA0A47tjCVnnLSB6ORYNqIG/eF+wvVMnpbGuSz7xAyDDwIxgJU82Jx0pvzTBKBRMyw5gmXn50zr0k7pmFqyvl+S0MqZ/ctIOPtCS74P4V+3EiJlNOwCB0WOFJ1nXQf06ZMllKDeINHX0UaaqjKMeNUY2K+pS5GotAPeKeGIbeQywncTl0YEgGfcQWt+X8GMZsx4TMMKaN72nhUp8KD77IHKypktGAmbG43IvKJhPOj8idhJA5z6BdEDodpqEPQYuueQ9CVt6+j7dyQMik1xd1Yua8eJ/7w93W4wBZ+fxLhCe8xDiOz8sk4lR7zqlIgfNkGLMbEzLDmCHkhcGu7Re5wpvouWdWvmoZTXR0Uap7gIjFAr00eFOv6IGp/5B0xhCHung/+AyMmDE8P5ARsckmEvL2D/SmMHhD/UIgOSYXfl/g69bw52RXvlYd4/iy3PPLpFJUe/bJYm8YpcDehCzABxvquGEYRZARKeJfrhfFyBHEMxa4eEcHbf3qN2n4hVcpPTLCYsYhvF8RlAAFsQ57ZycG8cMznmQLMMKSRa3x6oup9aYrqeqYlfLGe/GPsEXB8Ymgah9QtslkJiakxxdra1ELwygBhkfHnGkq/kEUwzD2A7RG7mgVnPuJScSBZ6xQ4YXttPh3P0ZVp76HqKKce1noXUG8MEpR+z5p8Y6nzxAVpBEPNGucGMIfkHc5qnsmm6KhB5+i/vseo8mufrbhGJzfYkizf+3h8QpPMmCFtxcqK1cRKz4qw5i1mJAZRpFAC2SJnpWIgrNzhjQbMAYwunQpLfjMh6nu7JPcQI0spYP47rOqBvzIZcQALhWGedLDEJcBYcoGQ+xXX0wM9+TYOPU/9AT13/8opdMYSAIXlaTd4Dg0QTrfdUyi3pVzwgb80jBKGBMywygWVgaRDxEL7UnJlXnpIbGIca8LJnSAKlcvp7abrqK6c0+lYARvnGdJEdHgsNk0r+Fyn4aTV1exMSOXGVlqMnBzruKQlS9VDz30HE9PI4iGw4KX+hMjo5cv1WQY8wMTMsMoFlYGvTjIc7lUqP0blQxxdCbu88RiVHHc0dTygcup/tzT2MZ/6IXVhpUOlxdxWVEEkcUKk1xOZDGDnqlQKugBZlIZGl23kfp++Rgle/o5rHgSdJsO9Bad0SmbYcx5TMgMo0hyPZ+8bEwx5mSDe1gw4y3zVSccQ43XXky1Z53k7of5e2MI6IXQwy6yipm64xqmih/3/0bHaey1d6j3vkd53YcrCM9GxA0bn1LDmA+YkBnGwYKelJMMLyCFJoAHpmtOOY57ZpdRNS8hXfATlAEjUB5IGS99T0rsncTBWtYc7Ibny/offIImN2+Xq5S7Av8aJm8yjLmOCZlhFImTnJxGuDXGKQprkPae+C8LiFKWwrXVVHvmSdT64aupatUy7qr5i4zusqKGFjuNUcNNkUjnKZNI0MSmrdR378OUmZx09j4dhjE/MSEzjGJxYuLJTCYoPTxOmTge0lRHkSLvTy4f6hRiMat77ynU+pGrKdbeRsFwmHtc7BFChiA+DJv9UBKNyHe7nGyyVWp4lHrveZgmOzopm06Jq/p1kfBC/BrGPMGEzDCKBerAIpFJpSnZP0Cjr71FI8+/TqlO/3yXXhIUf35inLxQuKaCGq69hFquv5TCrc3yrkYomB+1mAsQCOrwfCicPAOmvbPclcQU3mTfQyOPPUfp0VHdgIimg432ngNjPmFCZhjFkk1TOpmiyc07qPPbd9DGL/8Tddx6l4iKfpLFS4036zokRi4TZoMUikRowWc/RPXnn07h+lp2xEB8iFWAgjwhHtw/w1B+uX+WCUpvDXHg0y8Cok+lqPN7P6d4Vy9lMrhECYdCMYM5J32GMacxITPmPmj4BS8wOQuH3o1SYOLJWcgCMw6G73lt+/9upXVf+ivq/O5PKN6xkwJh7k3htVEyWMMfTio7hYeXXBh0OoM3bbTdfD1VnXAshcpibK33yvBANRQpG3DCxMGzQY5fRn3Ant29mdVtYudOGnnxLUoPca+MQTK174ZNIS47vI35gdV0Y87jr7qhZyP3sJyioMFXIDPiyH5gglg4SUinKdnVTR3f4R7Yl/6W+n/MvSB8eywelxfvyjVAF5/OiyPW2kQt115E5auX80bRE4Mttqtp2Cc55wwNPvsqpfoHxEonkUykvMCfYcxtTMiMeYA069Kz0WZemdLOsxfRD57UPkCpnn7q//mjtOUfvkWdt91NI2++Q8n+QfkMileKbDAXgNHtFEUoTNUnr6W6c06h2MI23TiEEXGqj6IYeflNGt+4lTLjE7yGTKg9knQg8RhGKWNCZswP0Kr7Kbfguf6ZvMSlRsdp+PnXqPPWu6jjljto8LHnKL6jgzKJJC4C8g8+vW9/LwyxaEzFIiMZzzmNqteuloEfuGoovUAfdRGkBwZp9LV1FO/pczYKUnIA0RhGSWNCZsx5RKJyrbreQ9oNuGcyNPnuZuq965fU8Z0fU8+9D9Lom+spPTKu7rgEKHFpZJiryXNghxPSUb5yKffMjqXowmbtEULH9pjA3YGgBtIZmli3kZK9A7LuEzQ1XYYxtzEhM+YF0Aa9dJjvefmGH8KRGBiiwSdfoK4f3Eud372LBh95lhJd3MvxooJlICN+dYRi3kki4Sm/vn80BPfKymJUecIxVHXKsfKBTpeq4uFMxbftlMugGMk4NU2GMT8wITPmDWjkfUMvzTwLEt6OgXtMfb94jHb8y3ep685f0sTWnUTc05HnuHLKwAYJhM+rOLOMHsSU81QU3rtEx7PylUuo5uTjKFpTLfbFgvThJcPxrn5Jc2poVONkDixFhlHamJAZ8wI08Kjs0tCjlU+lKT00SGOvv0U7/uP7tPUf/pOG31jHwpZkP+7Fvuh+caAMhsOzrbzwF+KFeMSDzHhF5UNdioC9e5+4uxbgXlnF4gVUftTyXPzFIBc6sxnKxBM0sWErJXZ2O5diYzCMuYEJmTH3ce26b96zmQz3Ynqo997HaNNffoP67n2AgmMTIgoiLf7SIQSHzUE2hBGaneSjlOoqQqKqpEJW9EVBjkrlKoOPSkuM0SULqPbME/RtHyJv+wHJ4bRlgyyyHMn45u00uaPLOUqqDGPeYEJmlDyQBJ2pBOSGc2CBCa06L6VxT6dp7LW3aNu/fIe2/uM3aWLjZnYKUVpeBcXShN6Vm+SHHhJPcIc1HlbWiCBFugE80Kw2xSHxiG9sU+1iTQ1UdfwairQ3qX0RcKo4IrwUKyijF1PDw06DXa9OZoYx9zEhM0oeucwngqDv1vD3ttLsgMuDMmSerVJDI9Tx/Xto89/9Jw089AxlJpLysedAFp+5LMCJy27szf5A4bRpctmgf3kjfqS2mqq4ZyZKtz/ghcVVwvIsPR6n9OgEUVJfIiwxzFR6DWOWY0JmzAF8H8y13NLIQ9Rcr4pXx159m3Z84/vU/cP7aOytDZQeG2N7fSoMPa7DSm5zbHBmpD9QUU4RFjI/KnK/uHQjD+mJSRbqYRY0FjMXvMhYDKPkMSEzShs0+nvRIQgCPrEy+NDT1PGt26nvZ4/Q5OZtlI3HoXMMwrLQHeZ3Eop4yrZ1HRcCMYWqKqh8+WK1LBJEgSnLPbHk4JBcXvTxGsZ8wYTMKHl27XlgPZtOU6Kzh3rvup+6vnMXDTz+AiW6e+VZK+2jQTq4+rPYuTtKhxHe5h42GeIeWcWyxRQsL3M2+8fnBaKdHh5lMRvJ5cb0zJgvmJAZpU3BZUERMG7QsxOTNP7uZnkmrOPbP6ahF16j9CTeRSgSIkuPilgRowRnEBGf3S5nBigYjVK0pZEiDbXsXKwMuRzxLD02Lh/dNIz5hgmZUfJAGNDDQYOeHhmj0Vffpp4f3Uedt9xB41u3y3B733MB+ZGNLAK4tCi2h5Ndt+jWOS3BijKKtTSJeb/gsiqyASP/0uOTlB2dOAL5MYwjiwmZUdpIQw4V44Z8dJSGn3lZ7od13f5z7qHgTRf6c7LFc574L19gFrGQQeyHFU2LS3qBCeDbZuHGOiTO2ewdCcX+fAx4MDrDvdGC6AxjXmBCZpQ2EKUsixE34n33P0E7/uMHNPDEC5TFewdZrXDvCJcb9VkvDE3HA85B9wVmdsOnU/AM2WHE9x4VFVPRHhhDAQrXV7N5/0IGVLOcWCdTlEkkxAaYnhnzBRMyo4TRC4TpkRHq/M8fUsd//JDG39ngZUGEQV75BE3gmYxOZCc8W6bPl7EDROzw3iJTwcovhJwZ6Qzhi9NufR9ILtkfcoJ/IJNhbYZBnJnDnTHDODKYkBmzmsKmGA23SpcTKu5xJbq6aNvf/xd13/FLiu/oomw6o2FYwPAcmXhlMy4lyih79HSklwZfeDMGT3hbxxHA50Qm33Pk9OV0aD+E2GeAe5TiH4Ittg5eyb9OyzDmNlbTjVmNVNBcC+0abZ7jI5ej766nrV/9Bg09/LR8WDKTSsFJYVHwb/TA5UXRMIlHpRAepaFn9yC757dx+PBJBSpgbANBky9F7wd4QbodkiuINCbPEciTYRwJTMiMWQyaZ/65tlkXAfmC88izr9DOr3+PBp98keIDA9y5gmyhbYfY8cQr6LFon05ceNptwQcALj2qoB0ukEYPNpvbtCQ3Q8mxcXhSu30AHygbXz7BcJiCkYjmLRepYcx9TMiMWY0259Jk8xSg5MAwDT31InXedrd8/DIzPlHQg0Hr7Vpw3AeTy4cFLbpz9r4wQS8O9yuqZLSkz5LDr+JB7lT/4BS3PYIoXLL1oiL3OmMxCpUVPEx9eLNlGEcMEzJj9sIttVxug5GnJDfwQ9wD6/nBz2jwqRd0hJ74UbDUy4fayOO+mL5YF364qrObWPHkK75ckpPpMOMT4oARwpuOxynV3Y8VddgHElySr+UUKI9RsLJc44KbYcwTTMiMWY229QFKDY5IT6zndojYS5RNam8Low/zUsbNN3pi+HHjHuRf/gW8erlRvGCVZ3IxMsiGIkRjpsmnKg8eGcD7EpMsZHiIu1h87iFiwerKfB4NY55gQmbMXqAxvMiMjNHgo89R5/fuoaHnXmHx0kYebuLuFYon7WHpN7r07lhaKjnMGXTKAnIHDQYKhKMUqq2lcDk3/ocRvY+nS78OMcWrteLbuig5MiL2+0NCuzLCII9QTRVF6mtMxYx5hwmZMWuRBjqRpP5fPE4dt9xBoy+/zRZ6GQ0CFWABw4PNomMyQ5iQ+MGw+gALHqwxIF+etQLSyPMsGKayJQuo5QMXUc3px1MghHCHB71HxmLmlpImnlKjEzS6fjunmdOq2dk/yCDCh0MUraumSG2V2hvGPMKEzDgiaC8Ef7TYaLhxOTDfesOE9rnjB/fQ9m//kMbXbxR7uefFDmi/cfkQlw7R+8LDzhIG4gUT+0G/LCP3yPRNHqp16lZ98jG07Pc/TW0fup4idbUICMfDA9K+2+Y41eMJSm7foWkpIjkQQi1H7o2Vl3E+6ihU6YQM1moyjDmPCZlxRJDeiDTWkJ0gCw7WeRIxY1FLJmnnrXdR7/fuo8S2TqI0BIt/GfbNuqe9GbwnEX0tnrOAQbjwdWjEAL8YzIgh+Jg0Vl6vqqSGqy+ghb/5Uao5bS0FIiyjaf2q8mFDsi6Zl3yImRObGh6hic3b5cvWxSCdMZQD5yyIgR5VFRSIhp2j5tcw5gMmZMYRRZpzNMg8c007ZUZGqf+uB6mLe2MTO3aIqMETRvXJq6XQ7rM/7XEhDIcVAcOKCgPM6LG5x6Klppe1NVPrB6+gto9eQ5XHHS3f/ZKh90eixd+l95kcYhF7dyNNbtvBQq0lsU8QCL1RiSZLkfo6itTi/hjybBjzCxMy44jjZIdN3CsZHKK+h56hju/dTZNbWMTkbR06hB5/QXoh7FtacbgUNvxqB7S3omvlK5dQ60euppZr30eVq1a45604JIvdlOCHA4hYQdpAfGcXDb/wGmUm4zm3fcJevN7hIC5b3E6R1kZZ96GDPnLDmOOYkBlHDt/QSssbkOfEBp94nntiP6OxdzZyS639LlTTKWKFnogY5LW/4oaoZM4W0Ca998b+QiGqPm41td50NTW9/wIqW76IgtGI68loWMSTT8zhQFPvkkuUSlN8eyeNvvEurx/AISm9L44hEmahXkyxha35XBzO7BjGEcaEzJgFBCiFN3Y8/Yq8/Hf0lTdZaLiJxquj0CDLZbj85GRAgWqpQX4eaeJjUao+4T3U/pFrqenK8ynS1kzZYL7KwzckzIvaYQNJlm1qfhLdvSzc6ynR1cdpQZ7Zvog0ySdqeBluqKfypQv1y9K8rkF5PqWgDGPuYkJmHBnQ2rqGNj02QcMvvE69d95Pw8+/oZasLr5XpZ9dYZPzD+HRXhhPWIE3Nst4RTajUocryqnq+DXUfvMHqJF7YsGqgmfFnDBKdDzTXpCL/DDgkisTXkk1+vo7NPzsq5SNJ9iOXTWDRYG4ypcspFhzMwXDEbUE0lszjPmBCZlxxEBDi7fYj736NvX+5AEafP4VbtgxghCixHOZ8QRYxeR+FltgkcnqZUVUYBE5ceEpyP4qKqiSe2ILP/tBqr/wLMqG8Y4PXJ5kd/boomFYzPz6YcRvDmlO9Q7Q6Atv0vibG2TdD6cvBgxUQX7LVizm3li9RAzx96EPc7YM44hhQmYcGdDKcps9sXELdd1+n7x2ipIpCkJZWMbC2RDXTn2MGQIm1q5phi2uOsIuBH+81P5ZhkJlUao7/Xha+JkbqfasU8W/DyXwSq43J5OzP5zwJrFVPEow+PSrNPzym5ROJvMp8Zc/95U0dgulsxQui1HViUdTpL1R43Ru+wxrGHMMEzJj5nFvo5creLu2qs4It9TAIHV888c08MRzlI5PciOMXpP2nNAvw/NlOsyDhUu6Z/qpFvHDBvRIUmwvHRiOEJfW6s47k9o/8yGqOWWtxJPfsjTxObCGacZH9hXEB+OU6N0KnnnDtsc3bKX+B56k8bc3auokQZwfzov2zFhqMTRRIpILp+JF3+qv8VSefBxVHLWCQpUV6oY5F46eAhjG/MCEzJhxskE0udyeSoMKCzSxToa0taVsPE7b//kWGnruZcqM4y32GGKvz3zhbRwIC3/yeikOI/FwYI0J67BUW4TJRsLUcMX51PrRq6ny6BXcXdGqrSk5jEhafWqVwhTAjAEdmclJ6v7JAzT2+jucybS4yNeeuYeJlEv+ERcvEQ/EG+KWkVdviQVPQao/da0M8hC/bCVIUDu0jfmD1XZjxtF2VptVuYznBE1lKEvpRJw6vn0HDT7xIiUHhuSjmPhKs76pnidZ4k0d+QqK5tz1Q3jSvon0bDjuELfszVddTC0fvIKq1qygYCwqvnTC/DCCfDgj8GZJBa/IOs967n6Qhp58gXulnH+XRikrEX02sRWMImiSCywhTyzyGRY1LpjQojaqOulYCtdWO3eNR5XOMOYPJmTGIYQbVG5bfT8K88zoOPXf/zh13/sAJXr6iVJ6yUwuh3EDjKYYfTMx4E0eCMgtuv5kTeKBB6wHgmFqvPwCfdB5zVH6tg5xL9zq4UM7n3vapmSI85ulgUefo767HqD41p2USeElW5wTDoKebAaXSkWyNccIovnR8HiVF8opGA5R86XnUGzxAgpEo7kteskzjPmECZlxiPCywzhDemycRl56k7q+ey/Ft/m3drCzttdTkbd5wF4beTXB4OLlxjwULaOG886glg+9n6recxSFKmJwmYKXs8OF317hHSqkWHpYkwkafu1N6vzuXTT2zgbKTEy6jGu+NI9s4l6d5FaWzgvP1I2nUJBiDfXUePFZ3BurEnu4+lg0hIQyjHmBCZkx87g2VBpV17pmEwmaWL+Zuu/4BY28+jYFuGcCj3tvcjkQeh4wSUTayCsYrVdGVaceT20fv5Yqj1tNwQr3iX+OLC9eR6B3IpdFCw8sXmclzkwkaOTN9dRx2100/MzLlJJXUbGzXDp0C3dZ0ksSUi85kFXvkmXBLqO6c0+n2IqlFIyE1V2igTtWsEmN1zDmAyZkxiGAG1HXMKs5Q4kdXTTwyyeo/5FntOFlfFsrTbQz+0tz8mYPDgt7fX5Me2iIL1Qeo6pjV1PbJ1jETjlWhtzDzd9fAq7fdvjRzUu2MUPPLDnOPdHX11HXj35GAz99rKAnCs/wof03lW1cPpQViULzofGIr0iIYkvaqeXGyylcUZHfXgGwOkK5N4wjggmZMeNoA63NMBapwWEafOw56rrrfsrG9U32GI2IXgZ8YqCHeOR/ECP6eA0KhqUXNkzSX4nFqGLNKmr/lWup7pzTKIgPYqon8QVcP0bsvd3hA+nkX4BTn+HlyDiNvvgGddz6Y+q7+wF3wGl+RKRhZgOyIGlmZHA+i38QozcRAo4IwkTq66nurFOo4uijuPi0TBAO23O5ZhCrjnI0jPmACZkx40ibixlPGW7P+x57nrp+/EtKDwzLYAb/PTF8RwzIAAb2jIY4Iz0xiBk8haRTp5KWloegq1atoNabrqK6C84SIZC22xnkchrafG74YQOzLGeKoiNjIUkHKMUi1vfgk7TjX/+bBh96StKHvOIL0KoxAUpLOUCwIOIoG3ZnOxyZKAv4C3F+QrwMRsNUfvRyav7w+yVvePUJFipgBYljozgjHsOYB5iQGQdE7ixfFtqAylyN0gvBEkYw+sIrNPDLR2ly8xZuWFHh/CAOPCvGgiNtLcw84Y0W8CSRsTnrLsHBC88qVy6lluvfR40Xv1fjQK9HwmsPBHOBFyoNznkm4A1qHpEu9H7SLEpswenFpztzwIpno2+vo21fu4V2soiNvbWObaQ/ySIGwc1/6tOLMeKWUZvsCdKGB6HhBweof3yhfOUyar7iPCpraeY1iLsevppzxOlyO2OZNozSQI8EwygSf5aPBtc1xdIYo9GVoeN4GBqNMc8mt+2knrsfpuHn3qRMGk0/YP8cB96oIa+ekreA6JBz9FTQF9MGHPa6EVTS2KI2arrmEmq49BwKRLnRlm0exuqLPOGtGxAQCAsEDOnnSbQNfjgveJN95w9/Spv/zzeo596HaLKzV/SY+1XsjLJhn9xNDSNCBnP5ijVbQ8xwfwz+sCXpmXLcsIu2N1PDBWdQ3UVncIHkRcwwDDsajANELvkx2gxLm+4M+QWm9PgE9d37CI08/yplx8by/nmS/oV0b7CGKuhtIYbacMMOIgGncH0tNV19CdVdcjaFaqtERPxmDyeSHlmiD+ReQ8zinUlOUnwni/ZPH6YN/+tfqfvbd9L4G+soPTLCmUGvEgItfVDOJptY7NPomblM+HzjHAFb8K/NkhLibWJQR905p1Lj+85hcyXbw5dhGB4TMuOAYHlxpqlmgKYdoGEeeuw5Gnz0Wemh5GDv6Gm4v/jTKKTJ5onDQyREMLRnh49gNr7vXGq46Cwq414JWnsJK+EOL9JHQvcLaXUJiG/roO4f/Zy2/9Ot1PmdO2j46RfkQefsZFLy4fMpecXkgiI0hAvAJbdET48XviRxybX2jBNFxMqWLHAuHK8PZBiGO14Mo0hEZNCbcOuyKt0ybZWz3GGb2LCFeu9+kMY3bpHPtOTwra+EwTpW1E6ab7b0UeESHvzUvvdUanBfdg4EcUnRXZbMpeAwgc0h/ZJMnuHyIv/wMcyhh5+j/l8+QWNvrmMBi8sgjbzIwySB3DoXUEHSvVGXshHZBkC4qlOOpYYrL5Rn5fChUB+Nj80wDBMy4yCY2vgCbVbRzqfHxqgHH8h85U15fkrRxlwuyblAWLhQumQLafD5L8IYDFL1Mavk/YkVa5ZTsCyqATSQxJOX08OAbBvi6rbqRDmbTEmeM4mEpAe2uPyKgSAqOsiV68U5sAZ/mPK2Gp/PF36Va1ZQyw2XUc1paylUjQ+DallpGPVvGIYJmXGgSEuqTalvVGUNDfDkBI28+ib13fMwpUZHuVFWf9o0M7wKG5hl6Zy12ca6MwUD8sXj9o9eSzUnvUe+9owGHqHUH4wQRrE8bMjISt6kS7ZLUz4/OhBGxQb5EPHmn3jznnld7oGxJ7HiyfcudZUdgmF5h2LLh99PNWefTNH6Wtgq6lXKyjAMxYTMOGDQqOYaVkYa4EyGJnd0UOc3b6f0wIB7GbD60wYaczfiD/ZqKcjgDamJ3IxzgEhtLTVcei41XnYuharK3QZ1i4VxyoNlhxNWUE27ipUmBGYM1uAVdkevE56QMhFaXGtFvpx3uKXhFWYgDjyTiYUyHKFYeyu1f/w6LoPzKMIipr7Foy54FQJpGIZiQmYcIDJcQ4EBjSpPif4hGnjsJRp+9lVKpSFYQek16OAO7ZngD3kLotHmXhcqX9C7ud5VqLycqtceQ4u++FG5J4QqqlKR25yAZlyH888ARfbskBdNK/5uhCXeWM9uKAOXE3YJUoYFTQSLu1+5T7EgHPvHutM99g9LXucpFOKe2MJWWviZ66j1xispXFPFHhAj0BMAmWQj3t4wDBMy4wDRKpNv+7lBn5yk0Vffou5bfsyraW3O5c89DPSa0OZKu4v1qQ0wxADygBGPwWCIylcvowW/9iEKlvmeWD64nzzyGDJ0QNYKgJ23xFL8wJDiOWRH7TDJvSy8+1As9o1/gFsHe3Be/M/l0buxVrGdPswsoxxl0oem5QkxUTRZZbO6BUJRKj96BS35g09TyzXvp0DE+/dzKdXcpDPDMACONcM4IPKNKbfGbBjfsI36f/4YJblXlpG3c8CxgL02utw4S28EwyOyFDtqMTVdcxFVrlkGF+dn/0iHR4ABadJekIgXouFJ44M46Lsc/fNqELZMMqlBiwVR7QXZqqioRgiz/PAsGacJDzuHsmFxQ28sG8xQqKac6i85k5Z86VNUd9oJRFE7LA3jQLAjxjg4RD2yFO/qpcGnXqShZ16iTCbpnrMqAm7Q0xgFyEY06OULmqjhgrNkCkZxSbE49DVRbkUMfuI5O2kqAVYgnOgloeKziMTjFN/WRRMbd3BErqc2A+j2kAoVVF3hNS4bXEpNsx16bxDXyuVLqO0jV9HCT91A1bnP0eQyZBhGEZiQGQeGb6UZDPAYe30dDT3+HKX6B8WpeDnIN/C4F1Z18rFUf+GZFG1qgCU3+uq8P9DkT7lUl5sC0uOaIgm5lSz3Hgdp6LEXqPf791G8s9P1oqYJRyFv8sd2cPmRDUiHpEd6ZmIlNpGqKqo9+1Rq+/j11HztpVSxegUFyvzXrQ3DOBACfIDZsWMcBFnuyWyjru/+RN4pmB4dc7a4DybGfSL3qtBDYnPViWu4V3ItCxn3xsq1NyZD94uIBzHpwnn2YbygyEz94HtlycFhGl+3gUZeeI2nN2jirU2UHBlmbzNwTodN4oXCrgCkR8hGbF3yI13BAFUsWUS1555GNWeeRNXHrpJXcMEXwklICQCDYRiFDLt2ZldMyIyDAveVen74M+r6/r00vnGrWvoGuAgly2JQSDZIkZZ6avvYddR81cVsbuSwOjYQl+CKacxzbb6vxX5F1rnvg2jYnBwcknt5Y2+8Q0PPvMI9yXcoNcACBl/sB9ucNtgmC5kMCnHrEivSEA5TuLmBKo9dSXWnnUS1559KkbYmCoUiLq2YwWPeaBjGVEzIjBkB1QUN9fi6TbT9X2+lgUeepWwKoiSuejlvf0IGvxxPMBSkhqsulGemKo85St0OsBUv9C1V2W1b5qkspcbGKLGjk0Zff5v6HniKxl5jARseZQ++ByYPBOQ6dNNFBJp/XhiDkTBF6qupbOki7nkeR81XX8TmhbJ5vdiI0Y8OyQzbSjZmKEGGMYcwITNmjGwiSdu//l3qvft+iuMzJWi6M7hqhvtSxVUn1Dp8mmX5//h17qGcSIEY90wKkDZdjftF/HKE/pIepTOUnhindE8/Db/6DnXf8QuaeHM92yV4u5xQ8aa9JlwKFFWZMd3gWFkVs5EQRSrLKdbeQjVnnkyNl52nr9rCF61z3pACkN+468uJyTCMqZiQGTMD15bxdzbRpv/9LzT66puUTaP6sJChUebuGL6fVUwTHAgFaMmXfo2aLj+fIo11HK/GczDtN6qwXM7Dt824d5jo6aWhZ1+hvp89QgPPvEzBNJLmv8OM7bht8aRfSQsV3wPyQfdCIBCSnmZscRvVnXc61V9yNgvYCgrFYs4HotBeYD7PvIRZ0lBkOgxjHmJCZhQB7k/JNS9pXLVJ9X0EXkdPI5OmzX/xNep78AkZOCF+eKZtMjfibPCX6XDpDKHxHUjYyWAGeAyHqPqktbTiz79AZQsXygAIF0Bn8Msz9PJ8ctQG6Fw2JzNZFYtEVw8NPvMS9f38MRp58XXKTMY5S9j4DPa4WCzxtg75ZA3yKulC5CyJwSBVLF5AdRecTi0s0LEVS2QkorzJhP+7pdkwjAPChMzYL9KzQSsrja4TDiiQGvBiDBp9423a+OV/pInNW6VRRy9CLpFB5Ngjns/C481BfBGZ7XEpD3FKj4nNwWCEe2C1tPIvf5+qTjqGQtzQS9wCNlQoDrJhcRUBgJkNIqiwhTCyXaqnj4aeZAHDp1Te2UDJoRHKTrCIwZWFDK+FclFNE46LRRFRaSo5LZyGYCRGsQWtVH/eqdR01fkUbW6iUHU1BaIRJFHI5QmHm7c0DOOAMCEzikJEQ42MrxoBSqMpHp2gzX/5rzTw0JMyiCLoXruk93rQSKNzhV4dKpY+xyUURBrmBr75qgtp4Rc+QaGqSgpIbwzNPFBhym8XJrXxQiZubJVNpyk5MEKDjzxDg4+9QOObtspHPLNjE6IV4gmB/D2wmSCLy5BhHDScZ3QXiaLtLXIJseGSs6Q3Fmlt4Y5pSHOAJIgvTbxqmNoYhnHg7E3IZugIN+YE2t4y3uAaXaxOJuV9irj3lJ6c5IqjPTHpIbGzTNxI40W5aOJV3BAU/sRIQe59VRy9lJquu0Teap/XF/SwHGLgAL7XpWs58F7EyW0d1HPnA7T9a7dQ13fvpsEnX+Ae4jbKsLhqr1Jj1KgKQ08PueyKJfLt4o+1NVMDngk79QSKLmynQJhFTJIPV1zW1Dzk0uLWDcOYOUzIjClMEQ2Za+Ob7h+kvp8+zMsBvaSY85lv1DFTF4gXJqz5PhX3Xprqqf7is6li9XKueW70noSARHAoiURtdMm26izPrUGs+n7xOHXceid13fYT6rv3IZp4d6O8tFgEgv8qYPqT7Rb7yqxiKBRFmPkfLC+jcH0dBcNh2b7ixVTnomxiNgzjUGBCZuSQ9lYa43yji9XU+CSNvLGOhp54QYa2y2VDdRZENrIZES79LAssec4TKhjWw5UV8qxY3flnycPB2ubnt+Ms/IJRMchOxim+dQcNPvYsdf3wp9Rxy4+p9877aeJtFrCJCfagoqVx+fjURns/+RiniwxUQXzclUQZyL06tstk3AdlJMFY6E8sXJIgyCKyPomGYcwYJmTGVAoaWml8WbGSXT3U/+BTlOjr586YNuYyeIP9Yk0baTazQZaw458Oi5AVKl+6gBouPJPKF7eJlVQ8eBQ/2nuTHhyvYptZ7oElO7tp8NlXqOvHP6cd/34bdbOQjeN5MBZWbCkbxNAS9o9gEDRMiFLiBPBVKLnTBbHzhDJwmcd2RaDUwx7Iu0jR5dJmGMZMYUJm5IAgoOGVBhcTt7np+ARNbNlKI8+/JvaQBSylAZelkywIm3OX/ggGWcAvT8Fy7o2tXUO1554ifmAnc0SgKwo74hJifKBfRkd2/+intOX//Dv3wu6g0bc2UGYyqf44HJ5Xw8cr3ZhIscZVROgLhEVsXM9pyjamAfIp+ccc2+E8+61jks1IIULYdCk4O/VvGMZMY0Jm5JHWGC20LkBiy04aePAZSnT2cGVx1SWoooXmGV9Iljdq8Ip8+VgCZymFbhWiCoSo8tjVVHPOyRSqq5JNaPvu5Ea8synF/scTlNiwnbq/cze9+9t/Tdu/8X2a2LqDMumUChKHQFCYw5ksheRhZoyS1MTIZU34k/hZbiCMM/jWDsmdxMVbhJhiKau6TU0h5j4dmkfNJ+wNwzgUmJAZUxExQj+H22EWi/HN22jw6Ze4MXZiIS4MCxh6GFKBpM2GhOWrEx4ChtgFK8uo9vS1PJ3I7jqiT2PQHhviRO9u9I11tPUfv0nv/MFf0s5bbqfE0JAIge/1SCCIAeLlRVqWGhOkwkXq4BWEFaMTG4D7eBA3tsES63qptEikbHhicfT3AhG7bMFtP5cMGHhyC8MwDiEmZEYOJy1olmWa3LydRl98i9K9Q9pYy7QXClpryCA+mQKqTziGqo5fQ6Hygm9tiRMu+2Vp6LlXWMC+JZcQe+55iCa3dVImhS82uwEUe0Pi4BmLir6ml42yAU4pDCI6/GNjEJc5xS1IIU5XKCNyhBAUYjHMvf/QMIySxITMyOErg8hCKkUjr74tgy3w7FaIXeUBZ0z7gt1l4AYbww21VHvOKVR5zApeEyWhAF7xNJmgkedfp+3/cqtMPfc8SGNvb9C30qfTIjb5p6n3AfSK/aGXmO8VYQCITljVQSScMxZNHRoCuc5StLaKas44gdo+fi1VnnIsBUJ2KBhGqWJHrzEVtPUsJIneAfkAZXxHh1hh5jpZ+yXEYgHRqDruaKo6ZhWFa2slfHpkjEZfeZN2fPOH+vb8u+6Xz6okuvspk+BeGAuOXNjEJUB8hLIIfN9KTC6hWBc7tkCPTDbOFrikGKxjATv9eFrwiRto0ec+Ro1XnEfR5gZ2LzJzhmHMOkzIjBxo8327P/bGehp7c4M8xwURgIgVqS3sPUCR+jqqP/90Kl++iFIsYMMvvkld37uHdnzrduq6/T4aeuZlind0UzaREv/6UwGSS4PFIOnCgA5cOoSA+XC85HWkWfuGWYrUVFP1GSdSy01XU9unbpC3i9ScupZirS2u74bJMIxSxITMyOGb8/TwMI288DpNbMCXnw+8gc8GQlR98nFUsXIxTW7fST33PkAdt95BnbfeSYMPPk3Jnr6C+3FOdERwYJvRAR5Fdv9y3iTxPOO/yBmMwRCF6mqo5rQTqPna91H7Jz5A7R+9lurPPY2irY3wpUgAwzBKFRMyYyosBmPvbqKxd9ZTenA418ZLJ6nIy29ZFpCyJQto9PV3aOc3f0Q7v/49GnjgCUr1DYre4BIglhKd9KhUyLAJ3Z4TMr/xfYB06V0yd1kSgSJBijbUyZtEGt93Li36/Edp4a9/lOrPO016inn1w6043W5RGzMMY1ZiQmZMIZtK0sjLb1JiZxc37VCJALf72vBjlGExBINBGnjsWbkPNvDAUyxgQxyWqxq0KSCD39mAj70wLCqQIYmbJ/jDIEP4lWk/iIBxUAkSDlG0uoqqViylpsvOoUW//Ula+oefkx5ZsKoCW9FAAqcCq5iJShuGUaqYkBk50JxPdvXR0POv87JXtYQtRQD476Rnv2RSkzS5fgtlhyexRpkgJhUODEYMczQQINkgRhSKlOlXmrMBDKb3IsPTvoA7xA8fuowGqXxRKzW//yIRr8Vf+jWqPetkCpVFxav2/lhENUMcTmUN9/3wjTG1NAyjFDEhm2fktMH1rnTueknM8GPP0OT2HUTJNLf13Nvh9h29JXkVlOuZ7R+EC7B4QS/0sp/KBuZBtmepwmej2V0HaKjASAqcqKhZ7bCGYfs+zQIbkS5sJ9bcSi3XXk7L/uK3adHv3kw1Jx9HgQjeRl/gn2NRwXR5KMiKHQSGUdrYMTwvERVQkcDMiUcgk6GxV9dTZnBMG3oIAZ77UleezxAcFR5KFpXENuQPUULvis08iXAhcRAr9quXN51/dsNAjsiCZmq/+YO08m++RIs+fxNVHnM0BcoruMuHB5yRYnfPbH8gasMwShYTsvlEVt65wQbp4zgzRIRJZ2nszXU0+tZGSo/h8yhwgC8x8M/fuJoZ/Ns4pMfHIoX3OMp9NLaQy30sYvktisxJGgLRMFWsWkrtn7qeln/5t6jtpivlXY6Rpia5jJjrNPJShNHFYBjG3MWEbL6h2pUH7Twa/VSK+h58iuK9vZRJp9Wbc1MhYSNUZyYQbdQ4gYpU3qwCJnfReJvswpsNVZTLA9ZtH76KFn7+o9R8w+VUd8YJFFvYSsFo1KUTSORqlFgMw5jrmJDNK7hZ5y6LNvNo4rWZx2W89PgYDT3zqnysssBF5kBMEJWZgCPTVECy8iKW3y7bOkOoupIq37OKmq+5hBZ88gPU+qErqf4CfNdsAffOWMA4sA/jI8LCx5k3GIYxVzEhmydIe+6uuxUKBsgkEzSxfgvFt3cQJfGmDbjrHBfnAOYSxwwJg9wec2a3CbHAbTG8XT5UWU4VR6+khisvpLaPXUvtH7+W6i85m8qWLaRgTEciCoXxMD7deWYowYZhzFpMyOYjaNtd+45FcnScBh9+ltK8zGbQS/J4EXB3ynbViGkAwdGLh7g3hkh5C7warKqkiqOWUf35Z7GAXU8LP3cTNV95AZUtXehGIqpXT85YkDZvlFVnZxjG3MWEbL6TzlCqb4D6H3pGemMYHai9MJ1LD0k8YjlzqoC4vCbh22XhinKKLmqjmrNOpIWf/TCt/NMvyPsQY01NRPjMCtIhb8QPyNs4dDSiDkbJx4Qpv1BmLs2GYcxOTMjmCRiIDqSN57ZdHgzG+mSC4ts6edqpbjzT58bcEAz26wdfyD0yDXZg7BqG1xE/vigdjAQpWFtNteeeTsv/4HN01J9+keqvOI+CFTEWOE2F3EmDHnFtxbo8mea6hxj9qNcpdR2bgrGwX2kYxtzGhGzegHcRii5BDXgpJkqODNHoW++IsAB9uwa74oEueSAaZvYrOgGhYAFCeBa1AIbzy5Jtncg5fXTru0wSOiOfeRERq6ikpssuoBV/9kVa+oefZTE7lYJ11e5tG9ggSxZvE5VUU4skOJNbyCcxJW0w5I1WsQ1j/mDH+zzCiwxaepEVjFbs7qeRJ19hK6cEoMC4KxAvubQnIgdx1B+EibgHhYH78ixzIMR+OVYIGLvJD+uhCIXq66jhiovpqL/4Ii3+jY9S3VknUbipXh9kZqFC/DnBMgzD2A8mZPMJaIMomKxRanSMRjdso/H1W/alXXnYk/SQRJtcz0xC8oQeFE+oUFqpuI/HBnkjB0+BSIRi7c3U+L5zaNn/+HVa/GsfotqzT6HIglYKVJTLi4YlplychmEYxWFCNl9w4uU1B1KRGRyhic3bKD2Bl/sWD6LSu1EgLzowqQil2RMLGcQOn3RZ0E7NV1xAi3/z49T+yeup7tzTqWzFYgpVVepADgHxiYoVxGgYhrF/TMjmC6wOTipy82TfAE3KxzNZ1IpWD73X5i4Wyk+Q+Fm4ZJ1XuIeFr0M3Xn4utX3iOmr96DXUcNl5VHXcaumB+XhyQF2xkDkzxdEwDGPvmJDNU9KJOE3u7KKJ9SpkxSqHvAXfmXUN4sWhObj09EIQsCVUz72u1hvfT22f+gA1feB9VHnsKgqVxTQYk4+Dzdi0TAVxi6VhGMb+MSGbL7AuQCRkYnOqf4jGN26lRFePOONSYHFAuPgnb8zHBPUiCsViVNbeRpWnHEttH7pSLiO2fvAKqlzDAlZeLttVtVOB0hf6OrHyCXM4W8MwjKIwIZt3sEywaCR2dtMkC1kmfWBPXAUxiEPiYDELhIiiUYo0NVL18Wuo5UPvp2Vf/gK1fuQaKj/mKAqWl7HgeVlCGJi1B+dRMfNuatRZoS/DMIy9Y0I2X3C64GULb/NIdPWyCf0rFhenJ/uE3fViIseCzzxXRqhizQpq/9i1tPIrv0ULfvVGqli2hLKhArGC4PECNhlUNwzZxyAQiQcuPMn9MV6XQEgL7GA2DMPYPyZk8wkWB+xwCEm8f5iSPYOuI4Rnt+Dsh25gzkKFy40QHV7NC12aQtkQla8+mpZ98dN09Ff/iNo+cT1FFy/kWKBEkLrdqxVcvK1/RkznjDPIQobr+xXDMIz9Y0I2TxCRYnFALyjVO0TxLTtYzAZYwPAIM177FOYJrtojkl6RPPCcD0uRAFWfuJYW/s4naeWf/gY1XnkhhdubiKLsL4i+HnxblTIM4/Birc48wV/gwxTfsp3i2zooi0+2QLSkGkCIoHTcO+NeGNbEP1sFqyqo+hQWsF/7CC39w1+j5mvfRxWrl1O4pooCIbyR3n3d2YcxDMM4jJiQzSMgZWAcvbGdXW4dfTD0xCBB+Ol7ELEerq6i2pOOowWfuJ4W/fpHqJUFDF9pxuCOQDgioTmAIpH5VxMbhmEcPkzI5huZLCV6+ykxMFzQeZraiwrVVFPNqWvla8ztN99ALddfSrWnn0BRvE5KbpixJ1U+NeZvoDGiaIZhGIcNE7J5BfeYJuOUZBFLj0+w9kB8uA/F2pMNBihSW0c1p6yl5qsvpraPX0etH7uG6i48k6JtzRJWpUrvo0lIhBNBEzmDow4KMQzDOIyYkM0TRF94hgehU70DlGVBg/bgHle4tpYqj15J9e87lxb+2k20+HMfoYYLzqBIU4OTJ0ZED0uuMs7o3UTHHNo7MwzDOHyYkM0T5P4XC058Wxclewd5LUCh6ioqX7qYGlnAFn/xZlr6R5+hurNOplB9jbzMN6dPbJDvkrERcUCqYJaJV8TeTVNUzTAM4zBgQjZP0C8qE02s30zJ4WGKLWqRT6os+dKnaNmXP09155xCQbwLUZ7xyouRCpSKGFBXnotqYQUGfUxaem35oIZhGIcFE7J5BMYUZhJpqjv3DFrxJ79Jy/7os9wDO43tw+yqIxV3RYVrF6ZYwoBqxPLmHnQ2DMM4nJiQzRdEY4LUfP1F1P7Ja6jqxGMoiM+phNlB3EyEDMMoTUzI5g16LTBcX0fR+gYKxfBNMKAjEA3DMEoVE7J5RE6wdul8yaqpmWEYJYoJ2bzBqxcGZGCCGTNnb8PmDcMoUUzI5hFeu/RiYl641OQEzTAMo8QwIZtn6NjEqaIla9YhMwyjRDEhm4fIVUT3XJnoF2bWITMMo0QxIZsn+A6X6pVTLbaUy4y86j/cYhiGUWqYkM0TpnS4sOKmoHPZ01edDcMwSgFrvQzDMIySxoTMMAzDKGlMyAzDMIySxoTMMAzDKGlMyAzDMIySxoTMMAzDKGlMyAzDMIySxoTMMAzDKGlMyAzDMIySxoTMMAzDKGlMyAzDMIySxoTMMAzDKGlMyAzDMIySxoTMMAzDKGlMyAzDMIySxoTMMAzDKGlMyAzDMIySxoTMMAzDKGlMyAzDMIySxoTMMAzDKGlMyAzDMIySxoTMMAzDKGlMyAzDMIySxoTMMAzDKGlMyAzDMIySxoTMMAzDKGlMyAzDMIySxoTMMAzDKGlMyAzDMIySxoTMMAzDKGlMyAzDMIySxoTMMAzDKGlMyAzDMIySxoTMMAzDKGlMyAzDMIySxoTMMAzDKGlMyAzDMIySxoTMMAzDKGlMyAzDMIySxoTMMAzDKGlMyAzDMIySxoTMMAzDKGlMyAzDMIySxoTMMAzDKGlMyAzDMIySxoTMMAzDKGlMyAzDMIySxoTMMAzDKGlMyAzDMIySxoTMMAzDKGlMyAzDMIySxoTMMAzDKGlMyAwjm5vlFsLezIZhzCpMyIz5QU6nMvkVJhtIU5ZXs9kMBdiAKYvJe3PrsDcxM4zZiQmZMT8IeB1iAxCRIgpVV1HjFWdTpLmJj4awOAcwBdkxwCLG3gK8zARhKSENw5hlmJAZ8wCVMAVqlFekYCxGlScfS4u/8AkqW76AKMJiJiKnQhbACvfOoGuGYcxOTMiMOY/2q3aRMLcSCIQoWl1DDeefQa0fu5YqjlpKAYgZOwayOU+5OAzDmH2YkBnzgJx85YAw5aSJhSpcW02Nl5xDzdddRhWrllMwHEaHrCCkCZlhzFZMyIx5wK5C5kWpQKnYGKmvocbLzqWmqy6kcu6ZUSQkPk3CDGN2Y0JmzH3ciMO8IAV276OJRZYijbXUePl51HT1RRRbvpgoFHR+dwthGMYswYTMmPMEZBiiWwHSzcI9MF31CueGdlCkuZEar7yIWm+4gsrbWygYCJmMGcYsxoTMmPuwOuGxMDF68RJl4hnWnUpBxtBXg8BFG+uo4YrzqPVXbqBgXRV0zzCMWYoJmTH3YRFCRYcWoXMmBlBglqEfXq14AX2L1NfJAJAlv/ExoliZusllSrgC9Y/nzDS8rBqGcZgxITMMRgbYQ8AgRjyTi4y8HmqopfqLzqRlv3Mzhaur2SrM/vQSpI5qDHBvjw8jDpzNXas0DONwYkJmGCCrgzqkxyYmzFnQggEKNTVS4/vOo4Wf/RBFWxvYDx824oWFy2sXr6u8GYZxuDEhMwyP0yEssu4yo7x/MRikSFM9NVxxPrXcdCWVLWwRwZMeHCaWMPVth5NhHAnsyDMMJi9KigoTLhdiqZcdoy1N1HzlRdT0/guobFEbixlb4q+e84ENwzismJAZBgMt0kuDPE0RJl2Ry4xsjLY3U9PVl1DDZedTbFG73ifLZJxXmRuGcZgxITOMAryYSU+MJ1n4FQauZUsXUtO176OGS8/lXlqj6lduJKNhGIebQBYfWzIMwyED6Rm97wWzLNkgn3Nx63Cd3LydJnd0UoTFrHLVcrY1DONQMjw65kxTMSEzjF2AWMmlCqdikC+RNfTMWMxU6kTeZKluzsowjEPG3oTMLi0axi7kDgonTAGxgYjpGtZVvnQpmIgZxhHDhMwwDMMoaUzIDMMwjJLGhMwwDMMoaUzIDMMwjJLGhMwwDMMoaUzIDMMwjJLGhMwwDMMoaUzIDMMwjJLGhMwwDMMoaUzIDMMwjJLGhMwwDMMoaUzIDMMwjJLGhMwwDMMoaUzIDMMwjJLGhMwwDMMoaUzIDMMwjJLGhMwwDMMoaUzIDMMwjJLGhMwwDMMoaUzIDMMwjJLGhMwwDMMoaUzIDMMwjJLGhMwwDMMoaUzIDMMwjJLGhMwwDMMoaUzIDMMwjJJmP0KW5SnDc/wUWWZ4DoMs8mYxZmEwZo6MW+4FV/wzQbZwW7vsR9mvM7prd9lWQdxq3E++Pdnd/RXWV2MqKJdDXjZuI9gzaTYc7N7IV0GNEHPZ284+b6voup/NQopKV74+5/JTQNFZ84ELAuyyymBt6vGzu5/SYN9CJjkK6M/lMIBFMEBZNmByNrkpEBBLY4bI+l2Ua+zzZS0TF7ffN6DAJUeheV8EctvCytT9KPtVNjQzZLO8LRddluPWuoQVrkNYFHmxIBsoKB+JEAemN/sN6GJPFPiam3ihR/nwCeiUXTjTGfeFiR3IU5DNITbgd0AF7fzlqoSYtA2S9GNV4kN+vC+1zq/NQlziJOky5U26hmVQ5iCXF6nbirfbb4fBF0YuEqAliWMkK/UCa1OPMwmiydGpRAhwgewzud5xanmwLRwgaPyTysT/Pfo1ps2+ylXceIY9oR5kj/BSmo8Dg6MoaBd8dDqb4RMUPWjzqcSabu/AtqWxKHsLpXEX+vTMbJ5mI9rLzou9Fi2XhRQKVmauDLSEUfs4Tl/cPnretjYT+9+eJI3nU6JwFdPXT92f+WsIwYJ4fXOdtykdNO/OAAoygaYaJ5S5pbP35MIVhnFLkLOWYwzlq6Um8cFUEG62Mjw65kxT2ctpLzK5azEVwoUIEUMB+Jq1L+/GtJhSv1DOrqx1wXN4yDVK2lTkwoh/F2B/cKB8LA5Zya3NKIWxFpq1eSouzZI8NSqSXzV64I5DdbcYiyyW0qZAOnL7kZeHYJ+ihDVWLljXfUIRazHvofz3CWIqlD0fk98G4kNDrJMHPjTk7GNKm+qz49jNDXAmCr158fJXvXw+/QSy0p3K4+390qOlqLHv6laK7EXI8iCT+Yy64vYWKNAppZAvxKnFaUyXXDHDkFvRijiVKR7casH6PsjF5KLVdbfi1mYOTlPhSZCPHta8KHprzmMuhzDkos3HpNY696LmNz+34UxyZjXnbt1N+cZspkHJ66+QQlnaF+LLpVl2EiasFDTS3iTWzqT54elQZOlQoAl3yfW5cDPJq5/yuCB5dvfCq4VhpwqV2BQIoVBk+zCb2YuQIWM8TSmgKSvsWnAYuHIovF5tzAz5Ut+9adC95C8buUkWU/0Vmg8IH6dEMLP7Nh8bR64ZYZNuDA1esXUp703DSlId6oSaWmjrKS7+kieX9T2VwUyDMsWEXlLhaYOzLhqkFYPMClOtMeGndi7eKdnKr0yxniVoEbiUFZQHjHsrniluCLpLxrzOe+S4KerYgR/1K9HCKPaF7G4zW9njPTJY7FYUWR29SHJzHdVJbxa66rS7f2NGyO8L3U26XlDrYHQ39AO8b7w1DAiHfeYvRewPjVtjkFrBwSSkWLGL7HJ1nz6IOa3bkHRrGnX7bMa29nu9wKfZmzDXBtStalTZNEfFke2hHKR8XAxzEuxIzreKOecU6zBiwdlGzrE6E0ibEAiJWdvSjCtbX6t0e/snI/tMBJEjCmBgEC5TBjg+ST7ssc7W2KcSqe5JrLjVYjd22NB7WzDw5OqiNL9pblvTacomU5RNpSkzmaBMIsFmXmd7uFOG/ciEwJjc3OUfxxDMgVCIgkGu7bzMRtgci8oUiIQpEOb1UJiLFX4lCh+VrHsjcKnLmWYLe7tHtkchg2ThnAoNZGZikjLjE5Qen6Q0F2woyIVRFqNwZTkFK8q4ULjicgHmsowKBrPbUcY02bUuYR1lnEhSemyc9w/vm3iCKzDvsViMguXlFK4ol4qr+8EHKm5/4P5U3idMvG+TSUoODlFqcIRXi1CXouF88MEVa2igcFWl35xzyRn3jfOY8w8DH/dZbgjS4yifcUrFk1I+QS6fkCsf4vLJhyt6ayWIyyEWbE4NjVBqYJAyaCCZIHGDJ36mCRdfIBakWGsrBSNRFyOkBSatM5qS/ZNNZCje2cmN+ST7R1hf59AyIQ6c+Oid1FhjHYWrue6EeX/CjT2IwBW7scNINs2JErFKct74+E3EWbTilB2P834ZpcTwCGVHRmmyq5eSfUOUyR3f7IfrMKY0h4Oo5dpXJ16BKOefp1AsQqFolEIVVRSoLqdoSwNFm+opVFvD5VRFkepqduP6H41wO87iJgKnEwbvSZSu4GZhER6YkEkGuKKnh4Zp+KW3aODxF2nsrQ2U4YIOxMIUWdxCjeedS3VnHU/hploKhiNcCFy5UKiIjpeI1sRsBnF7KcOVODU8TGPvbqShJ16k0efeoCRXfpyRxRa1Uc3pa6nx7JOobPliPiPjMzEXtKg9wR4z7BF+fccLjUJqZxd13PkL6r/7Id6Oc5gmUj+4QQpWVVP7Z26gxovO5IMq6l15KirFwhTffMaaRPms20BDXG9Hn3udG4hRrqPhXPnUn3kClS1dSFkczEFtAOcsrnBkr3ED2nvH/dT1g59RcoxPSgT0VSEJ04SP/+jiRbT8Tz9HZW0L3A7xdeUAThW4XsQ7e2jTn/8Lxbdtk0YbJ0/a24J8ISZNc5ZFeMEnrqX6i8+iSHOTBAfwo/V0Jk+6DgLOi/Si0KPi9jQ5OEjjnLfU9m6a3LSdxtZv4Tx2UGaATxK5gU7FJznFIa7CXqi0/CAsMPkpyHnTZhsu7A9+sS22AWqL8tESlzDcEwuVlVGwppLCzfVUubCFytaspvJFrRRhc6ytiUJ8MhlAbw6dE4jaLGy/D1jIJjdvpo7/+BENP/EyJQaHuT7hDA4VBHMubj6TLl+1nBrffz41XHQWxRa25goOiEnLWheu4AW30LP/I1zZDhloHPRS325l4VaBKwrUQzn4tDq6Cuo8+TNMnJ0Nv/IG9bKgDD/5EqVGxvQsD5dh3IGLywflR6+glg9eTi1XXcjrLA5+IweC31/8n9zaQR3fuZ26uQGcSTK8jWBVBS39/V+llqsvpiCfSU6XyS3bqecnv6DuOx+k9MAwpbneqmhyTUM5cPmULWij2jNPpNpLzqLak46TEzGUMco+CIOHjbIXXVH4fQpgBbxv8ZLzN3uQvLsGKcM9645b7qCd3/whpblBkDo2U0DIli6gNf/0FSpfwkJ2sPCJyOSOLnrrC39K8c07xAqplPKWOlkA52vxb36Cmq+5hKLcEB8U+9tn4s77PYsTdbUCOaMP75YZ/sGIWpLu5xOqtzfR6FvraOLtjTT89gZK9w1SMMG9Mha4NK7Vy8slIExslkg5JKwkFrWSq2P8Q+3DvtT6LCuY5+EgYoNygj8Y2UJW5cdxYYZwWIYRM09lMT4JaaOK1cuoas1KqjrmKG7bl1GoskLiFL8MjDmQBr/9KX5c2sROLWeynd+bkIX+jHFmhROYHh2lrX/7bRrkM/4ENwaZTIoPUk4MJy7DCQpy4WdTGT3zffNdGn1tHaX5rDdSV0ORmmo9oBEVit5nlhdyluQd2WJGD6TZhq/1vNCdq+s+x74uoQKLWRzYF8J5M9x5lknGafiZV6jj1ruo+/af0+jr66QXRkmcXKTZHx8+qOW87zLpFKUGRijVPSCXDSrXrOA4DqKkfQIZXPYYfeVNGn3jXbWYAeT8if+4fl/33lOocvUKuUQyHeI9fdTz419S94/u53o7wAnn8mGRD8nRzNtCo8Fnx6mxcTkjHn3hDS5LzlMizg1hC4UiuLKATPMe0x3CtZ3DiBEzbURQNlKVYQ3YAHNu180iplwV4Uoy+uo7NPrSG4T7MMiL5GcGwGYi9bXU9P4LKFxbLfFO2XaxYBfxCVrfzx6mFJ9Ac0TOHkfRVLAPak8/Qep4iE+IDgokEdvgtCL+whTn9jVs9a/uBR5zWeQlRCyxvZOGH36Oun94H3Xedjf13POg1LNxrm+ZvmHKTsa5c5bUjgHid/mTe1yiVFjnsmN76RTJmv6QQtkcV7R82Wq5yJq3c0sfRk+neeK4/T6XzXIvMYUTvUSC24xh7rzsoNGX36GhJ16igadeorF3NlAmlaIoemplUUmj1nvEy9vgv2xdyoiXHKkIrbiJD9ksOKi6sAfiuLS6B3YTMtxsHPrlk9R170OU6utnCwiYpF4SKD8pBV7nRgH30JK9AzTO3eQJnjKTkxSu4+5rdbkkXrMjWWMw95Pbb2Kag+Symd/pOumOV3THO5Ms1RvP2V+AK9kYNzq4FNR71wNcyd6geFcvZXBPDL8plaSg94fLGLjezmfgVcevkZOL6eCFbOyN9c5m+kg+eYbLHXVnn8xng8sPWsg031k+AF/gBvARmtiyVSoXeldoDDI4ALFBV0BZLlfcTM/wyUCCz/4n+Ex5/J2N3ICOcg+xUu4h4J4akDJGYBdWyh1x6REtgidOWIX9bIaFbOw1FrKX35J7M0CSPAMJRyMXaayjxsvPFyE76IaLyzE9Mk5997GQcePqG3qk1MeYXwamL2TApXXXFMu+VoPf/WLAUi9d4hjlntXQGA0++xL13/Mw9fzo5zTw8FNygh/f3kVpPqmUsub6JpVSAvMkoI5h0u1oMtSDlB/XXz2h8inhuds+DLKEsWAuwsLk215Z08nFpT4YyQMfIxBGDDjBfTtuz9PcdqS6e/k42k5jr6yjkVfXUaKzVwaaBCvL+Jh1V3lygurS4uIXI2ayIXYT+5mheCHjxq/zu3dzl3g9H+y8AzgNmrxdEuNWJa3oBXCPLMGNbHxrB01s3slnvWMUra2nUDkrOUbJcKY1snw8u8Q4p9Aqgglzv8Zz7Hysu3JQdz8H3CMeH2fReJd67n2Y+ljAhp59lSa37hR7PYN2jazMEBZnSrwmFVPBiCf0dmrWrKbo4vbCYj9gckKG3stMVUrEw1OQD4ras6YnZEgRTsD6f/44DT71opSTXMrg+FEsernQlY0kHzMW/jQf9nxg4NJ5fEc319vtFN+0lVJ8Yoa04J4B7q1J0Uo4xi/zBjHN5MF6qMCJ59hrb9PIS2/mhWyG0o14Ig21OSE7aHg3+R5ZkoVM67uWsa/dPs2o+TMhZIhXYswZHGyWfe9W4UE2zbNMMi0nQYOPPMfH6QM0eP+TNPLc63wyv5mS/YOUQvliQA37leqHyGEWI1IOs8YsUYq1zMWfrvNsF+TECf7EbwFuHXNMeDBarbAVb6vImssrjg1JkwAX7bHhakZmnDspfYMU7+iWS/Zj6zbK5d4s9+aDGOxXxSd8Ll4/93HJOm9Ey09dZ4K9CZm2iIVwJia7eiiYTDkLkC90ySiMKCWUOTKNJVthFN3Y2xu5QXmMOm+9m3b+1+3U/9AzXBA90kXN58dl1+d6DiJZy+VPM57LPptgFvFhvN8MnwyMvvq2XD7c+V8/ou7v/4wGnn2F4t19Wn4+HHvWiuhjxBLX5nWDiBe3w7OJFCVxecZ7mw4cRy47M4VrpKaFiyLD9TU5NMIiNiHrekjxJO7o+zNcXs42t22UGYxoPNEr6//lE9T1/Xuo49s/5rPr+2jkxTf0ElcBuTh4K3JiktuPbjuzFs2rzlzzMhP7IAfHNaPxSbVz6cTMcQi2IeQMSuFWcLyh9qAnP75pG/X99BHq+K8fU8d376Ie3LPmkwM0+BiN6MPJkuPU9KOewOBB+cPCT96kiZjiNWfHtrn4xCqP7tico2xrt3LSeHKRcJpQY13I3Bxuhe09Rq1DyEaefpF6f3I/7byF8/2dO2nwgaekp4ZbiB6Emnrs6dqhZrceGRrMnnsfoiT3rnAGN+VA5QWKvzBp4lJwNoDCxs5MdffT+NubZOemhoYl3mAsQuGyGMsnhvzmgs1ZUE44e0I2VXhcGfp8O0vceMc9m8EnuaL87BHqu/9xuZeR5V5tYSWQeOTnqpk0zGqL2iRusq+wzju3voaqTjqGKo5egdWDRnpkr74p95NmsueBvIViMaqdzqVFlxxcPcC1fdxUlzNhRg58rbT8h0c/51KDIXehAOUGO3emzcKF/THJZ9fxnV16MpBO6TBlrr8BvWOuu6+AmSybQwEGGOR6ZHFc6tJ9MBPpRhwz3SOTS4tMYepgln0m5hm6tLgLfrdiM/64xZTo6BXB6v/F45K+4adeojif9AcSeMe/XjYsTBuM+eA858hwvKKs1K4AtsM92nBNNUXqainaXE/R1iaKLWiRgXRli9qpbPECGUhTwUuYy9iMZWxhG5XBX1szh2ugSFMDRTkOXFEISXvLJ7UQNXc/XrcnycmPUva5RtrEyLYu8XIIsRlTenJSRpVOrNtC8a07ZQQ1HskKcO8sFI2I/zwun1PspsfeemR8/E6Vbdzzeuu3/pxGXnmDaDLJCfGdNj7jR2b4hwcTZYf4jKoH58YuotCwxb0JXi+LykiY+vPOoOrTTqDYknYK13Fldzt0LuOKKF8pYPbzeJyS3QM0/Po7clAMP/cqTe7oxE6RslFv2AO4jeyjKCgxrmHaELMLh5FLaBxOGnCmbMViWvirH5JRXdNBRy3+iDq/91OOvmD70wRVD/fvlvz+r1LTVRce1KhFzSmXz9gEbf27b1EPnzHKZTMuExRHlmdBSTOv8/akuGQNuDW2l6JzLuIvl08OX1lO1ccfTTVnnCAnBmUL27mhqKMADlzEpMF46cPMTjBqsevWO2nnf/5Qeq9aBkj29NON2wflKxfT6n/4sjSwB00mK5d53/niV2hi4za5L6Opc7WaZ1LnGeyvxV/4JDVfO41Ri3tAdqU38CzN5Ta5vZOGHn6W+h94ksbf3STtpODqlKSOy1HGLPJSRroyOL1ECyp1y9czPmELct0JleO5zzKuXxUyejdWU0MRFqQInwiEayvFDs+F4rndYJRPoDgMRiWH+EQK0cvEcRIGbHAacQUGg3jwrFlmdJxSPGV4Pyf6+ineOyD3vrJjbM8nCmkcI+OTlMKVHsSByDjdsuBJgD2vIc3Ig3gTR98KcZsTCVHN6SdRw2XnUs1Jx1K0vZkCMT2OxY+LwwWYNkUPv8cOevsLfy5n4LgWmk+BViQ8ZZ+Rs/8g7yw+D3ENhjhiweYQt7p+x8IfzlbQOGPHVK5dQ42caZxJ4QxOhnjOwIE0G3G7UCqbbyzkIXM8EMm9nPEN22mAD4z+B5+kRHevuEuxsX+8lDmDwgykKIyhvxyT7gGAyqUjiHCWJW88IO7NYFciiHjLUoyFbNFnPkJNV1/Ilgdfxn74fef37s3lYyZAuaiQfZqF7KKDFjKMqM2OTdKWv/9P6oKQyWAYdUW5IckY6i9J90UIH1y+OX9oHMSd/aEcNWaZZI5RZWxfuXY11Z13OtWecSI32O1yJipvT8iF8Cd+s489CZnkTgthWuSE7P+ykHEv4aApELJxFjIdjlsAEo19hf3Ev5kQMh8X/n6vw5DNpinNJ0hjLFxdt91LI0+9SHigXHzDI5syrFjahEK82N7H4SJC6qUDHw5SuKxCGvkQC1UZN/ixRa0UW8q9rOWLuce1gMWrhkJ1VYidA2D7HMkux9vUNYdLS6FfV/PFnIknKcnilexhQdu2gyY2bOUy7qT49p3c7gzISSAGeeC4Qa8d8Wie0G5zO8TraIF065jYLGnjvEEPeD3UWE+tfAw3XHYOlR+1lEW6rCA9UgpqnCZFD7/HIIHenz5EiS69LyMH9xS4gLBnuPFE8uCMCWcgSDeaW7EJ4EtEcn6ioHCSKUps76KR51+XB6wD4YDsQHkrhQRGTHMEVx66w12VSqflaf3Jd7dR1/d/Sdv/7ds08twbcvbky0mCuHLAnM+/xA1TroLzD2WLssbgWrHnhha9YfzEG8cRqa+j2pPXUsWa5RLuYMGlxbFX35rRUYseXPrQwR4HN/xeSoTzikZ68OkXaWzdJrlRLfbSsPABJJcIcDCipHx54Y+y4jrKXkJyNRL+1Yd4UE9yDIQ5ijSXb6K7h0afe03uncV7++VNIZH6Gm6suL5jv7l9NxuRS4uvTr20CGbi5ARx6KVFHX5/0PAu2fXS4m649GJee/qJ07u0KAeW1IhcWycixCdHGMDW//DztOWr/0aTr74r91+zAVQU9oATTaSDA+mVED4meV2ik0gwcbyRsDTqeLwDJ0ANV55PbR+/hlo+9H6qv+i9VLX2GCpfspAFjEUsxr0uBJQIEFzTVTjtHXYt8KAhFfTiwhWchqZ6qmCRqTnteGq48Cyqe985VP2eoynKvcAgp1NfjaX3+ORbclIgmlfECClCDmUNJxMwuTSmJ8dp7JW3KbGzS+oBLocSH89wU/Km6XAAw+8hZA+LkOGZm8ICUdBUsn3hgbvrhDCyKLDLTazP3OgkOnto6OmX5aCisghFWxrlFULszH5QlJgw5xTAKA6q7WLrzghUJ5zjDCJnafuKl7eL68sg5wuJwRr/pW7DjuOQZSIhz2XsvO0e2v7v36Oh519kUcPlCc2HVFopH13m110cYvbuaJwxsRkxOG9AKxuAkNVQ1SnHUeXR0xQyDEJ5+e0ZfY4MIE/ozUx31KLAJ0lDT71ME++okMmekPKCY2H5yarOZF2FTUeCwV6d4IYw/peLTxzR2HKP+u0Nsk0McCI+GcNllSCeRYMfHxcCOqRdEKRWi0nrM7zLKQjXa+cp53cGkIh5wUKGwUSjL+NqCzcILo8zAeIRIbvsvJkVMjmmkHxOpy9/MWqJ6T2yldO6RyYvIigsB17HYy7d37+Xdn7tFkoPjHLZ8Um9iJd44EnrDUwBbvVxpUrKUo5LLIIU4zat/pxTqf3TN9CCX/0gNbJwVB2zigWlQe6Hwb/frCwkMhgOkGLDFfrBtqMRKmtrporjj6b688+k+rNPEVENpLOU7B+gdApXNtCi4HRZAnE5qQn7SdIvK9ADnEgHKNHRTePvbpbdVsmiGZCXDbgNuzbVVUeJQww5i/1T/KjFmaCIROFlmHh/I55p2fa336TNf/pP1M+VN8EFiMPcN8kSFc+QV1RcFIPYSoGiIrCNq+wziVTKvaBbg8ijGUKq2KZAxGAnCzij8XhzHW37/75Lm/7Xv1LfT+6nFEb6xNlxJpK992QaB1I2+/PL7vLwuttnmUxW7kUke3pp6LHnaPPffZM2/O5fU9ePfsEngd1yQoh6Kbrk4tawiCO/MXGGPexcFfInSHOGmajnnillM/2I5djlSP1+wAnyxLrN1PGfP6Ku791LCbwHMYteCq5A8XHN+wktT5DrAm6tILjch2VLvYWSofKVS2nBZz5Eq/76D2np732Gxew0irXySQ4GCnHPRx5H2kf7criQKw+458aiGqyooLKVi6nlmoto+f/4HB311T+g5g9czT1FPinBa9xc/Qz4e5Y45+QCQ/80DRFDMaIsWATxYHUXTgK+eTtl+KQEjlK+GtLNEaVrO73FNMA+OaLghZh4/mzgmRdp+zduo+3/9C0aeODx/JBnqSiu8FAUUqBiKTYyn8FKUYwoytambJPNbl1Dq3n8nfW0/Vs/oC3/+C3q/skvaYwPkNTQmDRybkSMUUJgF8skPzQDfPikuPkam5D3UQ6//Bp1fPtHtPV/f506//sn3GPbKG9ykFohraSGxd/XMjk/9W6uDuncOCxwmecOeS74ce7Rd//4Pur75WPyirMQ3gzDTvCiu4mbXl7isiIaYrnLgnVul2JLF1PbJ66jZb/7KWr94BVUsXYNRVobKcQiQXjr/CwDeZL2DvlCPjCYhHvT0UULqea0k2jhr9xAy//4N6nx8nMp3FSX65GqoKMcnEDxzLfQMGHgCe6/9f78EdrxnR9TemJcN5b3IuiqHAFFtbv74ogLmaKNAUYpDTz4tDyfsf3fb6OBh55hQRtyXlBUXEiu0NBdlbJxhTlT7Ksn5tEih6jmLy8IMPBZ+vi7W6jz1rto29dvo14+Qx974Q1KdvfJDvbeprnfjCMBKh/vPT2LlNqndVEm1rSJOE1u3U4DT79IXbf/jLZ//bvyvM3Qs6/IEH5fbyS4mNXGr+Vqlrc2Dj0oay5w/CbxfNjPHqb+B56iZN+ANNp6WQz71x/rvO6uBiEo7q/irfINl59Pi3/9I9T6ofezCJxA0fYWCsRwmVnxe3h2gZrL+UCFk0rnKh4LVqiijMqWtVPdeWdQ+yc/QO2/eqO8cDtcXaF54fNwKREOJ4NcOKz2sBALzzEeYkcH9d73KHX/6OcybF9dGbct33JrCU+vhGaFkGkV4cxwtzU5OEIjr75DPT95kDq/cwc3BHfQ0NNoCIb0uTYE4JkrEsfUtcMCNonEuE1j1M/4uk3Ue/cDtOObP6Cu2+6mgUefowk+M9Eb65JD8SsV50ik2Zgmcri6PYc5H82uLuLEBLUYuxZvdcBbQgZ5/0PQdn77Du6h3U1Dj79ASbzqRyMQJKxMucPcOIzoUan3hPoeeJL6MIK4s4ftdJyedDewX93hm298uQGPhrmxX0itN15B7R+/lhovPptiyxYRlccK9qXfw7PxCgzyojnyk6bVwRZ4JVXlsUdR81UXUtvHrqOGi8+hWFsru+mxkPMuV5hyKzLPJCBmXdzD/TkNPP4cpTBYRlwUaQYFNuRXDoojLmTIsq8cPpfyZuihERp64XXq/O5P5I3deNcgBobg9S+47+RCcAQo0MOLbJELHj88szSxaQf1P/gUdd72E9p5y+3Ud8+D8kopebbDhSkEu1wODKOk8MeavGdP1Egn7ErUCV8TZR1eMKgJrzF67HmuG/dQ53/dTh0/vIf6H39GHmnIxFPs11cEHwsWGo9xeMjyfsBJRt8DT9AEH7ce6Xe5sw7c+5L9jVW2C1bEZLRk6wcup9aPXSPPGQbKygr2p0drBpazEbnIIJe5dMKtm1xKOa/izC0WRkDXn3M6tX74aul9xpYskKIAegrG3RFngRh8m4437kzySV3X9+6RgVhyqV38sXtuQ9PnyPfIuILIs2jIXWEJYmK39NgkDT7xHO38xvep41s/4m4/VzY8kDg8Kj5FFGayRPaGP412C4y8nOSz66HnX6euH/6Udnzje9TDZx4TG7fLDkV+kCotYG3kfCplR0sNMkoG2e+8D3mpB7vfu/m9insHaamRuq914jnXHbzdZvjpl6S3vv2fv03dt/+URp5/VV4smx2f5DjzYfI1xTjkcFGj99x3z8M0uW6zXBXSvaYDe7A3nYQJcimtPCqfSmq9/gpqu/EqirQ2wUH9SP2AyYeQTczafSr1k/9Ox9TMC22RfR60FcMw/irunbXceLk891nWjp6Zr+8IDH8IBTtGLsGyWzpLo8++SgP3PSZvBfFtab6EAMIfPJrCI0hGhvugCdAfCgSXGgEyqgd4lhLDwzTwyNO042u30s5//z4NPPG8DJHNTniFP8SgC8VpwWhLfCl5/O3N1Hv7z2nb//0P6v7eXRTfsJXdkF7dpTgIkC63JjlD/nxi3a42SgXsftzsdnsR9cH3qnWPwguem0F9xqGsz1lqneZG0R/wySxNvLWJOr75Q9ryt1+njv++k4ZffJ0S3X3yrlK52uAjNA456WSCuu99iMYwZNwN7cYLBtK8G/HiB9nPukt1FgpR+Yol1HLNJdR0zcUU4J6ZqwZuyX58xcjVDO82u0A9k2zB7CZF0+2zIe2xP/HmQGVL2qjpA++jlhsup1BNDfsLUhpe2Bm13UeWixftJrfxPfc9SmNvrdfn8cSnTu4/LY64kGHARAiTZBnZ46YCJYgKhOxJaaMmhbhiBSneP0i9v3iMtv7vf6PtX/13Gn7mZcrgU+B4v57UtkNEmhumyQRNcIPT9YN76N0v/z3t/M8fyFBdvJ9PthxE7zLNO5XzgCf+cTAgFzBI/pAdNGgZwldejRLEHd2oqbp38YU+/SYcbDEsGyczbBIf3hdGDsgSrSLqBsczun4bddx6J63nurT5774hrynDd/3wJv9DWpcNAbcwJjdupqEHnqZkbz/vRd2rODTxQLA86Ay4R4HGGi1StKWJeyMXy3fXKBp2IYCeuEj94H2HkNJ+FfiYjWg682hakVO0W3DBqZtY8eROxrhul7W0UOsNl1LT5RfIl9YhVnjHRwh5l1EyCIS8Z7U9hNhx241bMOgBS/PnC8YdU9PhiAsZcoShrBApvA1Eu6Me3yBogyH55YLCLzE8Qv0PPU0bv/J/acMff5VGn3mVhUbff+bLRxsDPYcuLDdd050idvCHv/hX8iaux+kUje/cQZ3fvZPe/fU/pR3f+AElNm/TZ4WQKD9xWvVBcQzY1Yqfc5KJ8yN5VHej9JBRrW6HSt3k+op9Kg+KsrWa+VB3E/zLux5lnDYm1CzUaem7SSyp/gEauP8J2vTn/0zv/P5fUdddP6NUJzeseAhX6mlBXRWTR5rOHLAvrLc5kFyHGNmTHBUF9X0uI7l0WcVCjVyyfALa84OfUWJwSMWLS0eLipd88ql7iH3KvuN/JEJNV14gX8QP4XVT4tOD7004sJ/FRfdw3s8sYw8J8ykHkg0pFQ/y43LJlsH6Omr7/Eeo5phV8uot10pL/YcH1G0scZygfPGaOHzZHp+okiH58OdPFqZJruyPKPvKC7tJVUCmM1wkvMQvw2e+eIVWun+EBp94hdZ/5R9p419/nXtoL1FmVN8arwWKQtTKhAnoGmddzpy9P5x1ccPAFlr8DK8mtnZSz20/pU1/+jXaecsdNLlth3snGXwVid8wKDQbcw/s373tY2cPcZKHaRmpi1yX8Po2vP9w9JW3ace//oDe+dL/pK7/up0mNmyjTAI9NK21vm5iiQYiR+FJmDPnbZTCZBWa5yrSl+C/5LUww1w++MJ9urOHBp57Xe5R4sTCl5eWNHvjBUzBNNqFLFWdtpaqz1hL0dbGXKS7lvF8wNevYChE0dpqavv09RSrrZVXWunjSyh3LtGCdldeNM9qhhcZ40048e3d7It/7IjopDinwewQsv3hCg5PxKPCoZyCcjKKJoF/4xMU7+ykwYeepC3/91u04+u3saC9Im95Fm+5UtJ4cnDBaowoScSLnpJ6n9yyg7p+cDdt/odvUAf3xMZfe4fSfUPywl/DmA65g47rnNRPV0HxktpMfJISPT00+vYG6vz+vbTlr/+Ndkp9flleEuCbToTw1do3CDLIQFoF9eXdd0VjmA+gULBEjlFKChpbPNc09MKrlO7q09sS7Iq2AIgAuqBotFG2obJyarjwDHndGwY97LVw5wEqVgo+PFt96onyzstgXSXhvqKWti/xLAucD8MTl/XY6+tofMMWFK64F0R30JSGkHFG5UCVFZQKCkaN/u370H4c6GNvrpd3Re78j+9T5y0/ppHnXqXMGN6YzJ5RKdUkk49RUffJ7TvkUyDbufHAkNGhJ1+k+LadlOYGBuCSg2FMC66wEDDRHFReqYy+LmbYjhsDPIOzs1desN179/204z++JyMe+x95Rt6Eg0ASjCNB3ffnvjmTNBJ7Rrek/uYyPn+upLRcxMSlzL2woedfk9eMyavHCgpDjBwETbKY2bHi2KPkPYnhmlrvg2FPey/mOQ9EHgIVrq6Uz7hE2pqlHFE6sMeVLpQ9ikjqOeD2Or69g+Kbd3JPOJ4ryemWY0m0yv6Qy10y4VWfb7kh6y7ziciwGSPAhp97hXru+Lk8UN35g5/RyMtvc+Xl3pQMtiiEGxU867Cjk/rwSpVv/pA6/vsu6rv/CfncASq8pIA3Mc2yNgxBL2WjVrlJ1qdOqG+ocbh8ji+s41t1PXc9IG8K6bjlTq6rj9HkFjyriPtormYiKODjZP91FT44wD4Er9TxxQGTK04tm1SakgNDNPr6OzLgwzv5lqHwrpC0PaGQvPw3hrd14MXWucjY3e3L+Uhh3itPPIbKli6iYAzP0mnZi6uImRhglLYbn8aJ7+iSdtqdKjjPB0/pdC8KDjg9yGHwEseV0FnCRuy4C5vo6pG3K3Te+hPq/M5d0lPD52PwcTkRpmSa4p298mVm/5LL3jt+Ib267ASum/vqymAvSMQ5G8M4OLguoyrJCFZURKm7Kj7i4uqalyMRPj5BS/cN0sizr1HXD37KdfWH1PXdn8j37MY3bJYhzQIi5pmE2UWk/JpuR5nqY26Rz5sUSq5sMomEPLozyY1pwH3hQzsM+fZEy57X+B+prZKPRsrHgOHmPRmODIW4jCpXr6BIfb0WPOqe3wFSXqjZ/IM1u+F5Mnys1OO9HiwlIWR7Or+UswH+o/uPjlj+AeN8gyA/nH1191L/Lx+hbV/7JovanTTw+PPyyffRF16jvnsfpJ3/8QM+071LRQ5DbTk8whbGlnsfmd+MYRwkqFH5+ouf1itftVD34Eds2IA6iPqn77Vj35PjNPrWu9R525209Z9vkY8+Dj3xAk1u3E7p4TFpKDQGH6NSuDbVZW7j8yrHMlbiSUpxbyAQx6hj3R/ihH3CHjC6TkG5B6h8URtFWprkpbr5UtW5v0o0n0F9xeNElauXU7QZA2H0xABlpwM+9FK6f9gc4JVguESua9OnJITMd/lRDDJxAYkdr0gx4cQW6zxDo4Demb6lGYezGxDCflP9w9R390O05W++ITfRN//Vv8rAEHyfCYKHcBhyqwUvkfOarsueEZACwzh4uJoRLgjiIVI0nljX6qZ1TN90I45c7djM4oX6npG3j2v9C+obbeWLv90/uIe2/J+v0/ZvfJf6H3+Wz3R3UmYED1djEEMBHJ8gja8zzyeknLk94B4ZXgqM8kCZSlGLO8pddoTsFzEGgxRZvEBeAIx9Iv4KUPGb30hdZWJtjRSqqUSxab1FXeV/wWNlzsB2oxPyzKRnuqU4u4XMZRoPS8OIzEJW8LBiboSWs0cVw5B4dQ9QmM3ybWWuqP4JDzQIeOgRlxWGX3uHxjbuoDTeDMJ2GDEG+ZIfR4gtBjIsZzgDlvgZOOyryDQ5+aUxP8D+Lnafsz/U3xArk4gRT74hEGDkOodHQXAGi0/J43UBci9YBtdBzHR8HU7RJGwmSImOPj1J+5//Qpt56v3FozTZ00PpybjcB8KE16ql4glKu1F6CLp70zx3KMwZ8qm94AClUylKciOKk1vsB0x6fqClCqRXxn6DXNaxlmaisLQw4q4+wNwtuwOHy6q2goLlLPg4OUCri3rMdTTo2mItfm0/8UYVfMLLl/d0OcRCxjUE720S0cEq54QPxMKkowKh0sjlEM44DmLxgAPXCRWM8lApT2LNk5SKO5uS+wHOTs16sMtD1uwA/1qJuUHgpa/QsnFeyEPY7Oa/eg0r2MnDy+4jeD7eQuSEg9OI5kQuMbh8IM+6VHcRQ5nYgtG5AzebYSETmyU29ev9G4cLlDsv3L7Qkxic0PBJjuwbtsZ+0T2k+4cnf1KFdanLzp/YSSitK9JYchWSXoDUXZ18fZR6ih/qHQ5NZ6d1VP1gwiqW8j4cHycb4Dc9Oi4DQzb/3X/Q+t/4M+r81u00sX4zpXoHaPCXT9Lwky9SdmxShkQjfbpEhHMQzpceUVOzGEimuUcwysWm+0deryRlizLXctd9wva8nyL4ej0+Lun8G1PhYhJCZWUUxBTUeikPNEgbjPL1Eztw2eI5Pvkuozjir8fXwaJbOUTgvpW8+UDXpOKoWLENTocY9JDC7IKzVPGfq17sDwena0D2iS9JvwSFZs+e7DzF+C9YlzM21xBIYwDYHV6QB92ROCNBIUvzxHa8a1m4QpwnFW/Om+wBjUtCcxnIK15kTZfG4QG7QPebgl2DfabvkcP+c3uEPYR4H+HVarDTS9mop7pvc1/RRSgOjzixNxG/7HO/W7H05j2xq/suZo1WLaXhBdgeLpOPTtDIlh3UcdudtO4Pv0rvfOHPadvXbqHxN99lTxlKITwfmxk8kFkY71yC84V96Pej37E4CcmkeY58F057gu1D6Gng2THZ/+rRRSXYCaeWR4DFPhjiY4KLSOo97FE2fDKQe8yEJ2nf4c4TrOARp2XTYXqh94Nc0uOUSob4pw/L6YGNzCKTSIDYyvvnkHktAMxwluQrzmxD8sQz6WRyfuRgkUS7peQFvtCAqT3yk+bJu8jZn5jYkUtBQVhnzNkZhxw5seI9I/sNu4Dn0tJxLUZPPRKj+ovPokWf+zAt+OQH5OOJwbpqqdPYo9iTUt/RmyqsxwzqtdR9nnBSM1O4ZkAaBImV65bURzbizSGBRIrSA6M0uWkHja3bQPGubsokkuxXBRgnlf6e21xFe8ZswHHnygZg/xa7J9BzkLepchwA88KwuZOIeYvWRBS1FjDaclfGKHd2gDVeRSjHBYpSvTGw8eaDB8ffIQPJR0YKd3ywqooq33MU1V90JtWsXUMhfEVVKoI26j4/frSLhp5lyB4rKHtOIswqyGyWJOfTDZPPB95JFluykBovO4+aeYq1tfHZXsQdDLnc8wRzbgvGocQVMxp4nDroYcf7wO2TYDRK1cetovZPXEct119GLTe+nxZ87iZa8JkP5T80SCEJq8Kg+xoVIbffZUL9PjT7VBsLjduLWa7ByHAPLc1NMScQ9uIGe7hrZZ278D5EFjXfmLNVMEgh3qdaCPuByxVv9NG3fxSgUQkFxnkKHyNcCHgeF/dh8fpAtVbR8uWvx5MDZty2gTE3O3gOvZDJnNPJs3BFJdWcupbaP3UDteHz2Td/UBqFymNXUbC8XPKSzw+Hc4Ixq+AkSVvFTC17zWsevwYx54Iuj1H5yiXUePl5kv8F3Cgu+Pg11HLDZRRpa+Kd7WNz5SWxT92CcYjYQ1FjL/i9GYxGqOKYZVR53NEUXdBO5csWUs3px1PzNRdT2yc+wHX5BjkxKVu6UC5ByUkJjl4XZ+6yClNYQ2YEf4xggQmbdXUJm8XgJTioiHrvmPnG5pA2AbOK3HEbDlOoqlJX9gcXWKK7X+6rSbE5ULaGB5WOa9TEpAwuwpdC0OhJfRMn/smKHlMyj4TlcYaZKsZDWoulMc6JUZAiDXVUc9pabszPpepT1lLDJe+lBTffSG0fvZYaL30vVaxaSqEKFbR8ln342YNPkYqNphImFKaMqBRL2X1yNh9d2k51F55BbTddzQJ2PTVf9z6qOmENVRz/Hmq65iIqW9QuZ4mK5hv4+I3Dw64nKL7uyRl8ZQXvUufCdToQDFC4oZZqTnkPtX7wMlrwaT45u+kq7qG9V75XFawsF/8yDJl/co8G8bnFTIDUSHQw8IT0yySOriHhNXEWe3jClA8zk+mZbeBE2GfT5x9mfH4lXFcrdvsDI6ETnT06MEEC785erOcRWtfwisDMGD4Sq+XtC0bL3vmSFW4Xy2IU5LY+B/xPg0MnZJwwGcDBRlQfUeaKGIX5TEhGB6oDhVsbqfmqi2jR5z9GLR+5hmrOOplii9okoxpumjmcaTjNuHSDHSMNnWvckEocNnrocLGWRSi2oEXP3G+8ghZ89sPU9sEr5On3YCjMB5nu/DDeGl1RwQ0jRqoBybWcSbtzZuNw4Opjfm8qYoKlXFkqtPeNZFZ627hc3vbRq2nJFz9FLSxoteecyj3wxRSq5foe5vqgEc88HK9Luk5Ywf0+/mvDjUM8v3Fxzykf/rCYm+R6psiiyzKMwUiEIo11znI/cOD4tk5KTYzrAC1nnWuW5m7xHTB4h6I+G5YvV72qli83GFB20IFwrXtTCmZF7Ip9ceiEjBMmD3y6VcmKXKTXSx2SG558Yx1b0CoN/dLf+wy1fex6qjrxWApyZQtFYs7H7AF5wiQ7wJ31wYxRYIFIlEKN9VR17Gpq5QZt6R99lvNzLVWuWs57DwMBEIgXLhJce9fRi9yk5EZ4ogEyDisof1RJt6r7AegApQxGY/na6nae31dq5n3GPbfY4jbZ78v+6HO08DM3UcO5Z1IF3kFXU0WZcFhO4iTIdEFaXSIRnRiRLjdJqqTh9c+McQrdwBRM8K81dx7A2dSi0hyHYnxC3dJIVF4mtvsCz9/Fd3ZRcluXvLbO7/Vc0eXint8EUhmaeGu9vj9RyoR/aBu5LuKowcm/Vlg9vYo011O0vRlBZ4RDJ2QMjilkSg5/zgMe6kRzoK+T0kkeWgbiN0BlS9qp9WNX0cr/9du05DMfpvIVS7V35i+9wbufCtl1HRTa7cl9X+wjLEa2+UZPGxPOlVx3r6Dyo5fSwk9fTav+5v+R0W3ly5ZQKByBpzwyelMfFsRINonH3aGHWR6WZdMumzUOIfI4Bdc/LLAXCnsy8kAnKnEWtVX3iuwzMTkkoO4z2Ee5oWy48kJa8ie/SUu+/FvUfPWlVLGgjQIx3rMsmvtEN6EUmsEu617MgNYqncQa+ZG6inzxSRImccHoSRcWB+l+klOyuLKZup94PRah6MJmqly+QNsV5y/HLuupiTEaeOZ1eTMQQBnuGmS+kxgYpPF3NlFqYIjrmZYQqpYUFMocCz245Nm82IImKl/cmnObLodUyBQ+cPmIkcafU4yDTDKYg1fcurfG09+x5mZq4R7aqq/9KS3+jY9RmRMEGWrsCodLRgsHheGWsJZ1ubzCW8MD2bzVAN7cAUdM7KbxwJ5bKDZLQyZIiyXusMfkzQivvnyDoARjUapau5oW/9bHafXf/b/UdtONnP56VqS9FS9kCm4YsK2Nnzx6gInNeGAWpinFZBw6eAfoZXCe+UJH3ZC9gAfrIQhcL3DSMbXy5vD2qD0A+xQ2YT7rrzlhDdeNj9Gaf/gftPgLn6XKo5YSRbguS5Rah/2EehaUlwiwG0/ydgTUYxw5YtZ6iMj1Hhwb3IQ0+EndUcPQA9R1nbjucq9Qw6mfOQvyxwtXXDrHn6dIZRlVnXQiBUIFnjBz7QEmKWfYsnngwScp0dEtOxhHpsYHnCdQ4H9Xa7ErVVx+NAs4SgpOlly2Bh9+kiZ2dlImhTckaRlhDtHS75Gxf1fU4aoqKmtvpUgjt5H5gpwWh0HIgObW5bk4+EwJAhHjzDZffxkd9dXfowWf5x7aMcu5FiLZOPC1ZLJ4cx0b8awOJAaFJh0cHNT4WCav+Mt2/sDFTkFThQngDpVWQH0dkN6k193ldwDM0rCk0zJyVIZln3Y8LfndT9GKP/ktarryEoq1NrM9e8bRMi2mG944EKS0sZP3wF6s9wjqEQKgEZQ4UQfDXKcqyim2fCG1XH8Brfzb/5eW/z+fp9qzT5b7BHpKw3ULQbkO6iuofN2DLe4p45RH6yB+0sjCophqUqy/Ocjeso1BZXWnr6UAn1CgKLXniolDSCCUMvaBkujspsGnX6TJjg5eU1sJ57fgPaIN4X2eb2ecj2m3B0cGqYVIO/6odMgeZ05/6iPZ10e99z1J8a6+KdkUI8oUYdGucjsMu4rVSym2cjErGt6W4kC5TQMcJUeUvZ6puAqB7/+Ea6qpYuUyarn2Ulr625+m9o9fJ19qDfLZlJYxNx/sXd5Hh+hclFjIq3s4l6iWiFN6alLCuvC7A35hwj0FCeOaF9iqG8KzASYW2MpTT6BFv/lxWvRbn6SGK86nspVLOJ2Vkt5ZUKzGEULqs1YsQY59WLEgyf1TFq7yJQup/pL30qLf+RVa9Ls3U8Pl58lHCVG9tGeHfqDWP1RpbU4x8VzqpnFg7FJmaIhjMao4biWVL19CoTJ9/ZS0BVz+2oxomaOnjn2RTcWp/+GnaeyNDZSJ4yvxGqPuLYnSrcgaTwr2Z07MShCUya5pR+7Ejk/qM8kMdd95P01u2ErZRILd8uWCeg/kCpME4DrNy/I1K6iMy12uDrAt/IlYToMj3uLqgbsHvD0WPOEeVKS1iWpOPZ6ab3g/Lfi1j1DbTVdS+eplUghaUK5QJIi/eMdmVFz8/KbYg28w1Leacue8cHc/rHPs7D9Eoepqqj6dBexzH6NFn/0wNV11AVWvXS2PFQRFwFxsGqUxD9E6U1gFdq0M7M4HcKS+hirXrJTh+gt+5QZa/Osfl4etK1Ys4ZMhPSzRKOiJnsaBuOUlwrzqGwyjGNxxXVhmQT6eeR80XXKOPFqBE47c3mOzmKQ3nA85uXkHDT7wDI2/tVHs/X7B0m8BIKy/1SHre2vjSoDClCM7aGelZ8ZrmXicRl58g/rufZiSQ8M54cqVBPx6O21UqWzpAqo6bjWVtTRL3BK/zKbHEReyYpCywAxlURalsmULqP78M6j1pqupHc9lXX0Rla/griqf8YpaSQm5syCsSiFyVnnhz5w0OszFq5j0zFcrM8QLtqiEkfpaGUbf9pErqf3mG6j1hsuplgUN3yjCg327IRs25iUF+14aQF73DZnWNl7CjpfopaFuVfKBjQfl2z7O9flmrs83XEZVJ6zWBtY1pgpO2DSwj8vYN3pE75lAKEx1F58lz/2F5HEfZ5+by3AsWcNlnWwiSUPPvkz9v3icJjZsU/sC/FtStOVQU87soik5ON35pOdLMjOZoLF1m6nrtrtoYtO2/AuAp8BtqQRBKWa4MxKgujNPlhM4tOM+YukoqPGgKQkhm5pJZJonCNryxdT8/gtpwac/RO0fuYrqzztNHi7GvTWcAXihAlMvYSJGX3iwV596o97ZsrqF67kHdvwa7nldRG2fuI7aPnYN1Z57KkWa6rjkfNGp8HmQtsLtGvMLv+e1Tsi5uZgUrbs5CpyCFWVUvnoFNV19MS389I0saixoV14gg4giDbVynw2grZR66sTR2DuFxzxKS8uej05ewTq+hBHjHkL9RWdRpLlB3LRUXdniNgSDazs4GcFxHe/tpf5HnqK++x6R56bALntVkRMOxKMuc6FNQG5QnyFi4+s2Uc+d99PgY8+JiOWro/oqBFcQQNmSBVR39inyqBVwuj8jlISQCeg2ST81X1BSPtGI3J9C72zx526ilhsupZqTjqMouq7RmHpi7zrUfUrIXJRewPBDgYTqqql81TJquOgcPkO+UYSy/rwzKIxRNj4s7zn9eWDvJ2NegwaU/1JdC9Dakm/2MM97gRtPYTxI30YNl58vo3XbPnk9NV56rlyOiTbXUwg3yLnu+cbB2Dt6jO4DuPPUcMnZVHX8MRSqxmurdK/gh7BoD2AqlKrJrTup72ePUO+9D9LEth0y0BFtiG+Y3Z4UEFJGmvJ2ShKXbM09l8rYOI2/sZ66f3I/9d79oLxfEeWYH/VdAB8AWo5BilRWU+Nl51L5MSvkcy8eDTX9sikJIUNhILNatcRCTJjghkygIlUccxS1/+qHaOHv3EzN110qXdhQXQ03DuyDaxn8+CKTsDzD0GpcdsQ3dMKVFfIC2Mbzz6Qlv/UrtOS3b6aGi8/mHli9VlLeWXoTHkZORG7fwaA7TSu934ox35A6wHVKB2XkKkgOjJIV+0KnXbz5Ey6cODVddh4t/Z1P02Kui41XXUgVR6+gaH2tvP/RKAI+TrV4uUS5YHfdI1iPtbXIezMhZhSNsp0KjxzyOBthpcLhjnvoeh+daGLLDur8/k+p89Y7KLF1BwW5l5LbFmYIpmsMtu2MJQaSjRzjEZDUyCgNvfQG7bztLur+8c8pi/cqSj4h1upPxUvtfJazXFdrTjlerjZEWxqkfudAwc4As1bIpl4W0IqA/IstSk3PgXIVS5aw5kXVe46iRZ/7EK38k9+g9hvfz2e47RQsi1AopM/P6AgZjhXLEEtTJCw33xsuOJWW/+Xv0TIOV3/BmRRmOxe9LMQ/b0M2g3jEBGCGD6RC/RjzE4yc1YPa1a8CUKe1vmK0FtcYXpfnGKWxxALrCOuQY4DDVJbJIKdFX7iZVvzv36OFn75BrhiEysvcKNkCEKRY9uW30O1A4pxV5E9dJQu8P/Tn1nkmRc/2NWefQo1XnEcVRy3m81qc+GLEKI5rXuIBdj7Z1dfK+cIIUqp7kLrvuJ82/MU/0vBr71J2dIJ7JnrlRzcL/w5NRskhyU5mKTU4Rr0/e5S2/vO3qf/nj7IdRm4yXEahtOZSRR/HgLaEIS6IYCRKZYvbaOlvf4Ii7a1cjDqmQFpM9qfHSL5UD5ZZK2S7NgK+IugCcyR9qh+pQFIiXFmjMbnn0PaZG2n1P/wxLbj5I1TDZ1z42msoFuUzWohXLVWtWUUtH3w/Hf3VP6Jlf/7bfOZwrHzldK/wNvxWC9PoDxAhb23MN7Dv97L/fX0RLzDL5OqxWurSI/71JAnVOhAJyeuuWm+6hlb9y5/zCddvUt1Zp1CosorrPfvgRlTFkBsGNwFvhj38yTpilKW6o1HBup/Er7xUAEsWBF6UHly2vmjVIoesOwfv3njJ2dR87fuobGE7r0EEGZQFFliXQuI1XsjLFAIZykxO0uhLb9G6P/xftO0bt1Fi/Vb5Dpz4Ud/SLhUWH8y6B/xv36h/gDS5dHl2C6x+8mEYtzLFzsfjLPL2ebM+R5ehoedfZrH+Z9rxL/9NE29vEg++LmEpXzxn9CQOJwAceyCFR3Ip2s4i9oefoejyRXpZnFHfPFcDU9B2HiSzVsgOBlQJERQpZLbgM6tweTmVreCD/2OX07K//hKt+eev0Op//Aqt+uc/p1Vf+wod9dUv0ULuvZWfiG+jle9+hmsYRxgc5DJB2LhOyzft+CSs4aIzaemXf4NW/MUX9bJNaxP3HlDxpR8hk4gU2+SuWPBMz4Z5ha3kuUoGTRb8AdjghQISBP6kRyJOcxDNPwhUlFP9pe+llo9eTWUL2tgizRNnnMsIDaWWHDzyXESNF1xQmVSKMv3D1PPj+2gj9852fOfHNLZxK2XxORP4cRPezIJQsi6NvrRWsi4OGuVUsCleqB9OBSaHeBeHQnTP58LwGt5KI2+mkRCoE5jrt/d8eI3fz1ic4nEae2U9bfmf/0pb/urfaOTJ5yk9MEiUxj0xFS+8gEIm9i9v7kBIXiIuvFEGb2Na+LkPU92JJ8jjU4eSOSVkqBI4AOXSIUpTJu7ehiLc+6rjytlKFauXU/XJ75Gpas1RVL54AUUb67lxCPOOkD1pGLMfbkhClZUUa2+m2rNOooWf/TAt/aNfp9aPXEvlRy2jIDccOA7QrKHNRd3GmbKijY02PGj0tIHW2q8Nq9ryD8fSHD4sph7zQYo2NFDjxWdR26eu53JcIWUh2sHeUEpy+YzLBCWI+53iAXbpNKWHxmjszY3U/f17aOv/+Tfa/vVbaeiZFynRP4DI2Z82t9ii7AtMMEu8MLleUiE5P1PDeMTeGxw5L+6EHrUgt0dlXSff+CMoJnwUM769Ux4v2Pq3/0Gb/+pfqff+x2ly63bKjI/rSQ1eei0voOAYUHd4qcWj4inEIty+HkeLPnUjNZx3GlFFkR8xnQY+L3OCKWWFPZNbcMXDPoCJz2jxEmJ5bgTPgKFyiZu4im/DmO1Io8IVFzUWg5TKly+muveeQq0fvpoW/sbHqe1XPkA1p6yV76Lpuzv1WJAQ3PjI0gmdNnPK1IZdw8hRMdV6zqBHPGeO/zBDuKMtTfqg+qdvlA8B476OZp/LyomDDylhUIoQfHbA2y0SHb00/Pwb1HPX/bTjG9+n7f/8Her+wU9p5LnXKNnVw4KRkLAST0FcXuj2j6bGhdKlXylA7vH5qKdsy+9lXk5O0sSmrTTwyDPU8Z07aOvXvkM7/+t26v3FozT6xjvyouQ09yxRX3wUiMFPfq71ketiTRXVnXs6tX30Gqo97xQK1VW5bR1a5oyQybkMlxgyJEXLM1/oMpOKVrD0u8WfovDMuxjGrAeNlFZsnbgaY/BH+YpFMlCp+cNXyhtDWtGgnH0yRZsb9OvVUuclBrfQy13AHwpYR1OXa+7cJuYkuZYekyuAUJAizY1Uf+GZ1P7J66nhsnPkBbc4CdZWQkso15QAt5IrOxa0+M4eGnn2Neq99yHq/O5PqOO/fkQ7v/kD7rHdS30/f4xGXn6LEju6KDPKvR3ch9wHurc1dlkU4EXEk9tvMmkogB5XcmCQ4pu20+DTL1HvPQ9Rx3//hHZ+63bquuUO6v7hz2jg/ido7LV1lOwfkjBSLM60W6x+u7xE9mOL2qnxiguo7UNXcp07icL1teLzcBD6M8aZBTzc1vvThynR1SffytojnLapbxzYH5phVIbqtUdT5XtWyfrMgsLkhGFTBWW3azFiXc5OptRCoDtqV9tDDd4W0P/AUxTf1sGVWd8cXZgKyVMReBkuCCmDWapPOU7eSzkdUsOjNPrKW3yG9q6zmTnw8HrtWSfLJd/p3J/MJlM09NRLNP7ORq7DWm+LLTsAn7tVC2dGD77q2FVUc9rxs+oe6pQ0u0kWGIlbXUXlSxdRxZqVVL6gVd5XiiH7aDAzXOdwKcyDODwIj5keCwUnd/spS5Q1HtxuvPz83AcTp7Dv4Hl4w+mRMer72cOUGhjmdU2dpGS3OLJUe/qJ+phNVYWzO0Bc4aHx9y1A7lji8sKth9jiVgriiwHxJKUnJqWuAWighsmnUWPwzbfGhDY1OThM8c07aeztjVJH8UAxekJ4Jg0PVuMr1Knefkr2DcmXllEG6fEJysQTcg9OB/JwZNh/EA4IX4ZTjftw+KYh7tOx3/TYOKVGRrjsRijRw/FxvAluWyY2bKWR19/hXuGrNPrMK9T32HM09NjzNPDEiyxc71ACH8UcGeW4cMGUc4BtySAODGpBv93nxpWOWLCJJ4yqrVxzFIvY+fLyCIwaD5bjzenarRD/M0QcdXcPzCEh8wXG23IHHeY4W8FBJmZn55HqJn9vC5tCH4ceEzITsoPBJxODNvSyluJNPi9Ie9nidkk/3nOHT2jgmUkcF6h7GT7GpSPCngs7Jz4iLDQuZ7EX4F6SQsYUbEHhgkB2RZa4nUNvFicE4epqaRPx0mCUHeqZhFFF04jEiBXXiDs7hQ28nh6boGRPL01u3MrH1ds08sLrNPLKOzT+5gYaeXsDjbPYTa7fIq/Bmti8nSa5bUjs7KZkRw/FuQc32dFFSV4mtneKCMJ9kv1NvLuZxvgYHX/tXRp59W0afZHjffYVGn7yBRp45GkaePApGnj8Bd7WW9ze7JReF8QPIqlloHMsNf9ILwul2/dYh0myJLdoyijKJ0m1p6yV1/Y1XXouxRa2umMEpaeZ19Azw96EjI8DV1McGT7jePsLX6HRV9/RTIJCL3LgIKMHckBzYXAU5auWU/tHr5HvjM002BXo+PsOOgrPF6AXM/UDcMbBCRIPPIO7s3eGw0Z6dIzW//Hf0dATL8i1c6n4nAgsUBGKaYwlfxIGS7+vAnLfZMFnb5J3UU4HHCid3/4xdf7gXmczc+Ca+pLf+1U5k5vOQ74Zbhy2/P1/Us9P7qfMZFxKoZiyE1AVuAxRd3JBJAI14o31bTdeQQt//WOcRpxpHh58vd0nsrtxTPrkFtYAlw2XFyzQAMe3drLov0hDjz9HYxs2s3CMc/lxmbFHrUOKlIdMPPeWewENW/nKxbT6H74sryKagtt+UXAvI76jm9754ldoYuM26UECqd+7xIFvDS75ws0yZD7a1uRsDwIuZ5wMIPpc2eXSrAa/Oo7Lcg89RUOPPEvjm3dw2U1wmca58xKkJEY5ovwkoZpYPSoBz7ENLHjSvKgf9QV7V/7OTfcF/8LcskXCcmkYX5nHOyJzFZXLB72ybJJ7ZUk+MUlxQy/NrW4VviQvjN4z4xV219BY5x4VxMoho1UZ9MEkDoSR9gW+2ZZ7aeipRmtqqGzZIqq/7CxqvPgcCtfVyZUAIHkRk6ZDS3ZmGOb2ck8cSLdqKq5wimPmMrI3pPPLf9yMxQhkbBFJxOQbA/nMi0uL2mllkUohkzjNEpDy/GKv7M99/x6MWcr+REz2LHvRHpmfFN94iY3MYMHHBi6XHbWYWj9+NR311T+gZV/6PNWcfhyFGmpkpKM8DMz+EcQ3DnKMaPA947fFPb2CJOTZk90+2duGDhGSXyeYvGlJrkuzNuFqj3IoW76I2m/+AK3489+m9k99gMqPXUbB8hgLDPtDL4XbGJSb75MgVsSAk2xZ44jyuYMJU0bEBLsRYdXG++JlitcmEpQaneBe6iilegcp1d3PvTpcihyUy5ap8XFKYxAJnwhge7L/ecL2ZSQ3LhPiD3usix1cU5SWYfScLrbz7SBiwRB6fEdMcoQBLyyiOKmrOfE9fIL8QVr517/PJ3jXUKSxQURMU4yQWpawgIhpKRxafF2dAh5qyxWpfK1WkwhEX/HQG344g9jHJP6h9lxC+PmsykKMM5lBTm/BjgCyqkZlyoqu+tu3RwyUjZQVyonLDT+pVFLSul5QprtN/NNnUrBEseZzg1jzo6yKQfcHvEsQZ/BnijO5v7QeqUmi9mY1HBCaNuSbl5JWF4svE9jta5IfxyD3AlxoHx3yrAmddfg9jWV+rztzoYWA2pS3RF5DtTVUf8lZtOpv/phW/tWXqOX6S+XDsLhLgsYP2Zav+8oZO1tggaKQYxoTr+A5NJQht9yVa1ZRUL7t5RHPMj8w8iH0g7h6NUW+kE352x1Inx6/u2b2QLeI8K4p3CUqWUV0bMhthwU7xr1OXF1a8/d/Qku+/EWqvfAM7qXUihu8ybNbSDnMiIDTjk/wyHZEVFxciBvOvJrmHp2UO//wQmN/IoOYRNi4nGEj6y444oE/aUP0L3GJO09uIaCu657k+NljKI1wLL6ko7cRFvH493hqXNzT4whirU3U/P4LaMVXfkvqCj6lFW1sRAD1zOh2MJ9aliKEh5h9bkHLhr34Qge8iqSjAu1vkvrvwFmjfDLerYOs7Nj5DQRLHi5EefEke19qEKo/Sn/PZVs4EQ4arn1TitPtMq6rXO6Fpb4vXGVGSmTnaTg1sRtq9AwhTdOU6LDiy8BvuTgg5Kir+uJSX4ouchyYbN7fhDouDY5rODUGLNVHQVWeO6ABxKWqshjVnnwsLfyNj9LKv/giLfrk9VS5cpnc60CDiOM2g8tmrGoZERKUDCobSoonrr/hsgpquPwsCldXSdSF+w/mAyo/9AoZbA310O8RjZO3zQapnryvuOmXXyHqewZBGeS27uA04uvS4cY6arj4dFr2R5+nVX/7B7TwszfqJ57q67l4WdQ4mNRPDilXivyEEwDAZYtIsYYOksSvlVmXbKM/9SP+eE3qrEwO7EtnhGDh+EKqsWWEwmVYmH0Toe0CG2SSU5ecX7HkehFubaDas06hpb/7aTrqb/6IFv32p6jurFP1+4vy6JKP4MizRyXJoBcmXdR84QicR+wEdJuLQQvcn9XxTHYMFypHgkZsdhTBkUUqD8paKh/KB3YoNy69IoVD9hP71csaLgzik/JW9wMDOwdhCsJxnQhK79ytTxduiUI4WN172gCS67dYbIoRGsUkPVhEIHlGWapjkUXIG9SDHPvAtS08c+WJdEnDAsu5h9S3sjKKcKNcdeIx1PrRq+S1Qgt/82NUc+ZJ+sYbKWQc07jclBd7Gare0kwLPnEdVaxdrV+cUBedo+yc72IKED4yXNZ6ElxYc/WYkF0svsQg7j5tfvLH0UwBEfMpke2JiYF4cA8sUlkpb1WpOuE98rq7xb//GVr6J79JCz//UWq87DyqfM9KClZWyOU9lV2cxPk0am6QB3zpXmxzG8EM7uoHq77t1NA8R4Hk2o98eWE/STdZbGCvtVtxgubiQRTYdqSujqrXHiNviVn8G5+go/7si7Tkdz9DzVddTFXHrKJYcyOFKsokz/7A0nQcefY4arHv/scoMTAk2carRQon4imIm40RrtA4m9vXhBuUuAGIcGzG6J+qtUdT1ZoVHLErdF+28xC5rJVM0eCjz1Gyo1fLRMrOlzXKsKA89zIRnzmrGeGw5OaXzRglWnPycVSxark0zvvDV0r1ynP+o76mMWrx1XdkNBUaLnmeZppTkCe5p8AHRt3ZJ1HFau4BIC+65QMC/lGOw8+9SpObtnNeeRuIS+pdSO/9SLnse0I5yrNWmLiOY4kvf2NEHBojeThWRmTNLdBM6tGI+se9jJpqaZgxaKNy5WIqX7qQIryf0hh2juHZEHjuxWGABepX09UXUQNGrOFeCYapc1T5fYiY+ScWqGF5lz2B9j07OiJvl0C9k33J9STr64uYsV84TjbXnHG8jMqVT7D4qHkpjXMxlb4IUDrS8HvcgTI1n5w8rmehqkqKNNdTdGErlS9bRFWcNnw4tfqYo6h89XIZzh/iXqvUMQ4jt15kQAvLr0SmkefjRelBmPLzXAI8zvNUW1/mu8CWgRjvu5oqefAbo1lrT1tLdeecRo2XvFe+9oGTl6oTjuF2Y5m8mxYP1ctADomvMFJ0IfMifzgoetQiGoSeux+gRFevjIRB8YgHFIBbk5OJoioJ+9FTKzHK8HsuIBl+L5FxRDNU2UqTrAzl7fvl4xTfukNGH6ltQVmLqTj0zAphEJbb8YY6eQkynvEoJhrZrWpk8mt4rgVvJRh6+Y1ioikSpJTPDLlBxGdzKt/DaWQB1tQrB7KtbIJPCJ54nsbe3pAbfo8cYF5UGeKkQvyhENnkzzi5fuItMEhf7ZknzkkhQ4+jsInMlxaXCTeyePXSxMatNL5pKyV7+2XkYyAalZv8FSxy5auXUqiu1rULGlLC8lzKPmc/NfY9gv0wNEKdd/yC4n0DBfdrnEHQOGBXf86p8q02iIP3UeymikWicvFhm77985vAEhTmP2fHE8owOz5JSRbmNOct0d2ngzS4s5AcwjNjbD88RonBIfneV5rLFyPGUacJdZk7FzIyEfHgIIcZcSNyzJAW3HdjsYHQ4+QL37XDwB483oJLx2E+GcNjESEWMAzYiNaw4NbWUIRPRnB5FGZ51pD95gSaN+IOA17XHPnjU925NMSv83QY2Nuoxd2ETBI/HufajavPLvGFiYV3KcH9g8ZA78+47KOQI1ywOPtlC7kGPvVcZ57BFYGLJxOf1AorpYQJZaYNfTGVBH6klDkyqddsFklE74nLOoTr2UXEk9seRyaX6sSW9yHOGCfilI5zvZgxkGaOlw/ASHmFNIyywdy295/eKXBU2WSC0nzQB5B5Cc7x4DKY1MH9IAcll5csEY7tuDBxDKCRD3C9DcZQjnMPyapbSpnJguf8FzeeySrXA3m0Ac+eoUfBDaUMBXfunnyjh0n3ZIHz/klnKcW9sgx6f/hJdDxjg9RR2adqF0LdQWONhvwwIM2lbCpfQ5G83NYlrXkKy8UjVlJfk5SamKQMN844WYz38UnCyDilJrke48FrPP7EHQtcJcumU/LMnzQYXD65beKAR965bUWvSY53fCrFiVgQn/rh3nQEveyGWgrXVVOARQ0nZ0EWu6n7DfgM8NqUjCl+y2Jd4PVwUbyQAZ8BcWJDYUK92wFQGCQXNf+0ws9nIdulPHK1im1xlgW7XMkVA2IDGiYfd3EnDLh2rw0Hh9KAsoQuILSPb6bQdO0ao1s/yI3lg8HEE0bAFBmPhC3cLkQNS14/sP1QYrgmQLKObOYz7cqEy8GXgXpl2CB1FO68hnAOsXX+YI9aLD2rAj/7AicP8Dp1e4BrIhIoifFnKy4NOY+w02BqmnmmbElWeMYruaPVewBin6cwnXmTguOPT/UlANwkq+qU86MOaiyWKXHICvbn1Bqt0XqfYG8bcccE3Nkg9eUwckDPkSGpklikUtPr7HIuReF95vIqEWkM6naYS2GWIT0oVxhSEljBWaerwUU3nlqYjPevFrImUe5fxIA/iKZsFmmUxYHt+2JQccXhMzWf2Erx2/I+NdSUpGM2Nep9gIYRaHwy57B6n6XoSEoTzqP0WiWbkmmxliLg/Y51ObkRs3qRmazyDGvi1znlPPkp51AU0gN2AbBZjK4ToeQeMyKSdXEXg6aR/4Ubmem66qPDwm1ZwHb0OT4llwyeJM3AHUMoK02XX05Fjj/Yc0H6KHNR5Ja7hNPopuCtvLVuW5HdiP0Js1johH0HR6RUw+F4cI5T0H0jeXGPGMwG9twj2wV4kIzCVLDT9gtGerkuv9/IlNASsRrnJZJ/VIXdC0HKu+iy8X2mPeMvjxUP0uQToOF0/8PgljOA5nxqhPls7ztPU3CB5MQA9RPrqNYHdLkpv71cGny8fn2Osmt+vTGHL1cYZe69YU3LDY9mHEjTsF+mJApzXilIh6cwnVNccuFnCB+fNJds4L+YcvY8YeG26RZTcX6d1z368dHl2M1iBsglYOoxJpty+ZNjk8t6r5v3Dnv1cGg4sEuLhmEYhjHLmPlXVBmGYRjGLMCEzDAMwyhpTMgMwzCMksaEzDAMwyhhiP5/mfwQpZYlPCoAAAAASUVORK5CYII=;" vertex="1" parent="1">
          <mxGeometry x="720.75" y="644.58" width="79.25" height="70.85" as="geometry" />
        </mxCell>
      </root>
    </mxGraphModel>
  </diagram>
</mxfile>
